# 3ds Max Wavefront OBJ Exporter v0.97b - (c)2007 guruware
# File Created: 03.06.2016 14:28:32

mtllib 4arrows.mtl

#
# object Box002
#

v  7.5697 -2.0641 1.0145
v  9.5697 -2.0641 1.0145
v  10.5697 1.9359 1.0145
v  8.5697 1.9359 1.0145
v  7.5697 -2.0641 -0.9855
v  8.5697 1.9359 -0.9855
v  10.5697 1.9359 -0.9855
v  9.5697 -2.0641 -0.9855
# 8 vertices

vn 0.0000 -0.0000 1.0000
vn 0.0000 0.0000 -1.0000
vn 0.0000 -1.0000 -0.0000
vn 0.9701 -0.2425 -0.0000
vn 0.9701 -0.2425 0.0000
vn 0.0000 1.0000 -0.0000
vn -0.9701 0.2425 0.0000
vn -0.9701 0.2425 -0.0000
# 8 vertex normals

vt 1.0000 0.0000 0.0000
vt 0.0000 0.0000 0.0000
vt 0.0000 1.0000 0.0000
vt 1.0000 1.0000 0.0000
# 4 texture coords

g Box002
usemtl 01___Default
s 2
f 1/1/1 2/2/1 3/3/1 4/4/1 
s 4
f 5/2/2 6/3/2 7/4/2 8/1/2 
s 8
f 1/2/3 5/3/3 8/4/3 2/1/3 
s 16
f 2/2/4 8/3/4 7/4/4 3/1/5 
s 32
f 3/2/6 7/3/6 6/4/6 4/1/6 
s 64
f 4/2/7 6/3/8 5/4/7 1/1/7 
# 6 polygons

#
# object Box003
#

v  11.5697 -2.0641 1.0000
v  19.5063 -2.0641 1.0000
v  19.5063 1.9359 1.0000
v  12.5697 1.9359 1.0000
v  19.5697 -4.0641 1.0000
v  19.5697 3.9359 1.0000
v  23.5697 -0.0641 1.0000
v  11.5697 -2.0641 -1.0000
v  12.5697 1.9359 -1.0000
v  19.5063 1.9359 -1.0000
v  19.5063 -2.0641 -1.0000
v  19.5697 3.9359 -1.0000
v  19.5697 -4.0641 -1.0000
v  23.5697 -0.0641 -1.0000
# 14 vertices

vn -0.0000 -0.0000 1.0000
vn 0.0000 -0.0000 1.0000
vn -0.0000 0.0000 -1.0000
vn 0.0000 0.0000 -1.0000
vn 0.0000 -1.0000 -0.0000
vn -0.6958 -0.7182 -0.0000
vn -0.3680 -0.9298 -0.0000
vn 0.7071 -0.7071 -0.0000
vn 0.7071 0.7071 0.0000
vn -0.3680 0.9298 0.0000
vn -0.6958 0.7182 0.0000
vn 0.0000 1.0000 0.0000
vn -0.9701 0.2425 0.0000
# 13 vertex normals

vt 1.0000 0.0000 0.0000
vt 0.6667 0.0000 0.0000
vt 0.6667 1.0000 0.0000
vt 1.0000 1.0000 0.0000
vt 0.3333 0.0000 0.0000
vt 0.3333 1.0000 0.0000
vt -0.0000 0.5000 0.0000
vt 0.0000 0.0000 0.0000
vt 0.0000 1.0000 0.0000
vt 1.0000 0.5000 0.0000
# 10 texture coords

g Box003
usemtl 01___Default
s 2
f 9/5/9 10/6/9 11/7/10 12/8/9 
f 10/6/9 13/9/9 14/10/10 11/7/10 
f 13/9/9 15/11/10 14/10/10 
s 4
f 16/12/11 17/13/11 18/10/11 19/9/12 
f 19/9/12 18/10/11 20/7/11 21/6/12 
f 21/6/12 20/7/11 22/14/12 
s 8
f 9/12/13 16/13/13 19/10/14 10/9/14 
f 10/9/14 19/10/14 21/7/15 13/6/15 
f 13/6/15 21/7/15 22/8/16 15/5/16 
s 32
f 15/12/17 22/13/17 20/10/18 14/9/18 
f 14/9/18 20/10/18 18/7/19 11/6/19 
f 11/6/19 18/7/19 17/8/20 12/5/20 
s 64
f 12/12/21 17/13/21 16/8/21 9/5/21 
# 11 polygons - 2 triangles

#
# object Box004
#

v  3.5697 -2.0641 1.0145
v  5.5697 -2.0641 1.0145
v  6.5697 1.9359 1.0145
v  4.5697 1.9359 1.0145
v  3.5697 -2.0641 -0.9855
v  4.5697 1.9359 -0.9855
v  6.5697 1.9359 -0.9855
v  5.5697 -2.0641 -0.9855
# 8 vertices

vn 0.0000 -0.0000 1.0000
vn 0.0000 0.0000 -1.0000
vn 0.0000 -1.0000 -0.0000
vn 0.9701 -0.2425 -0.0000
vn 0.9701 -0.2425 0.0000
vn 0.0000 1.0000 -0.0000
vn -0.9701 0.2425 0.0000
vn -0.9701 0.2425 -0.0000
# 8 vertex normals

vt 1.0000 0.0000 0.0000
vt 0.0000 0.0000 0.0000
vt 0.0000 1.0000 0.0000
vt 1.0000 1.0000 0.0000
# 4 texture coords

g Box004
usemtl 01___Default
s 2
f 23/15/22 24/16/22 25/17/22 26/18/22 
s 4
f 27/16/23 28/17/23 29/18/23 30/15/23 
s 8
f 23/16/24 27/17/24 30/18/24 24/15/24 
s 16
f 24/16/25 30/17/25 29/18/25 25/15/26 
s 32
f 25/16/27 29/17/27 28/18/27 26/15/27 
s 64
f 26/16/28 28/17/29 27/18/28 23/15/28 
# 6 polygons

#
# object Box005
#

v  -13.8875 -2.0641 1.0000
v  -19.6455 -2.0641 1.0000
v  -19.6455 1.9359 1.0000
v  -12.8776 1.9359 1.0000
v  -19.7089 -4.0641 1.0000
v  -19.7089 3.9359 1.0000
v  -23.7089 -0.0641 1.0000
v  -13.8875 -2.0641 -1.0000
v  -12.8776 1.9359 -1.0000
v  -19.6455 1.9359 -1.0000
v  -19.6455 -2.0641 -1.0000
v  -19.7089 3.9359 -1.0000
v  -19.7089 -4.0641 -1.0000
v  -23.7089 -0.0641 -1.0000
# 14 vertices

vn 0.0000 -0.0000 1.0000
vn -0.0000 -0.0000 1.0000
vn 0.0000 0.0000 -1.0000
vn -0.0000 0.0000 -1.0000
vn 0.0000 -1.0000 -0.0000
vn 0.6958 -0.7182 -0.0000
vn 0.3680 -0.9298 -0.0000
vn -0.7071 -0.7071 -0.0000
vn -0.7071 0.7071 0.0000
vn 0.3680 0.9298 0.0000
vn 0.6958 0.7182 0.0000
vn 0.0000 1.0000 0.0000
vn -0.0000 1.0000 0.0000
vn 0.9696 -0.2448 -0.0000
# 14 vertex normals

vt 1.0000 0.0000 0.0000
vt 0.6667 0.0000 0.0000
vt 0.6667 1.0000 0.0000
vt 1.0000 1.0000 0.0000
vt 0.3333 0.0000 0.0000
vt 0.3333 1.0000 0.0000
vt -0.0000 0.5000 0.0000
vt 0.0000 0.0000 0.0000
vt 0.0000 1.0000 0.0000
vt 1.0000 0.5000 0.0000
# 10 texture coords

g Box005
usemtl 01___Default
s 2
f 34/22/30 33/21/31 32/20/30 31/19/30 
f 33/21/31 36/24/31 35/23/30 32/20/30 
f 36/24/31 37/25/31 35/23/30 
s 4
f 41/23/33 40/24/32 39/27/32 38/26/32 
f 43/20/33 42/21/32 40/24/32 41/23/33 
f 44/28/33 42/21/32 43/20/33 
s 8
f 32/23/35 41/24/35 38/27/34 31/26/34 
f 35/20/36 43/21/36 41/24/35 32/23/35 
f 37/19/37 44/22/37 43/21/36 35/20/36 
s 32
f 36/23/39 42/24/39 44/27/38 37/26/38 
f 33/20/40 40/21/40 42/24/39 36/23/39 
f 34/19/42 39/22/41 40/21/40 33/20/40 
s 64
f 31/19/43 38/22/43 39/27/43 34/26/43 
# 11 polygons - 2 triangles

#
# object Box006
#

v  -7.6904 -2.0641 1.0145
v  -5.6904 -2.0641 1.0145
v  -4.6904 1.9359 1.0145
v  -6.6904 1.9359 1.0145
v  -7.6904 -2.0641 -0.9855
v  -6.6904 1.9359 -0.9855
v  -4.6904 1.9359 -0.9855
v  -5.6904 -2.0641 -0.9855
# 8 vertices

vn 0.0000 -0.0000 1.0000
vn 0.0000 0.0000 -1.0000
vn 0.0000 -1.0000 -0.0000
vn 0.9701 -0.2425 -0.0000
vn 0.9701 -0.2425 0.0000
vn 0.0000 1.0000 -0.0000
vn -0.9701 0.2425 0.0000
vn -0.9701 0.2425 -0.0000
# 8 vertex normals

vt 1.0000 0.0000 0.0000
vt 0.0000 0.0000 0.0000
vt 0.0000 1.0000 0.0000
vt 1.0000 1.0000 0.0000
# 4 texture coords

g Box006
usemtl 01___Default
s 2
f 45/29/44 46/30/44 47/31/44 48/32/44 
s 4
f 49/30/45 50/31/45 51/32/45 52/29/45 
s 8
f 45/30/46 49/31/46 52/32/46 46/29/46 
s 16
f 46/30/47 52/31/47 51/32/47 47/29/48 
s 32
f 47/30/49 51/31/49 50/32/49 48/29/49 
s 64
f 48/30/50 50/31/51 49/32/50 45/29/50 
# 6 polygons

#
# object Box007
#

v  -11.6904 -2.0641 1.0145
v  -9.6904 -2.0641 1.0145
v  -8.6904 1.9359 1.0145
v  -10.6904 1.9359 1.0145
v  -11.6904 -2.0641 -0.9855
v  -10.6904 1.9359 -0.9855
v  -8.6904 1.9359 -0.9855
v  -9.6904 -2.0641 -0.9855
# 8 vertices

vn 0.0000 -0.0000 1.0000
vn 0.0000 0.0000 -1.0000
vn 0.0000 -1.0000 -0.0000
vn 0.9701 -0.2425 -0.0000
vn 0.9701 -0.2425 0.0000
vn 0.0000 1.0000 -0.0000
vn -0.9701 0.2425 0.0000
vn -0.9701 0.2425 -0.0000
# 8 vertex normals

vt 1.0000 0.0000 0.0000
vt 0.0000 0.0000 0.0000
vt 0.0000 1.0000 0.0000
vt 1.0000 1.0000 0.0000
# 4 texture coords

g Box007
usemtl 01___Default
s 2
f 53/33/52 54/34/52 55/35/52 56/36/52 
s 4
f 57/34/53 58/35/53 59/36/53 60/33/53 
s 8
f 53/34/54 57/35/54 60/36/54 54/33/54 
s 16
f 54/34/55 60/35/55 59/36/55 55/33/56 
s 32
f 55/34/57 59/35/57 58/36/57 56/33/57 
s 64
f 56/34/58 58/35/59 57/36/58 53/33/58 
# 6 polygons

#
# object Box008
#

v  2.1761 11.5118 1.0000
v  2.1761 19.4485 1.0000
v  -1.8239 19.4485 1.0000
v  -1.8239 12.5118 1.0000
v  4.1761 19.5118 1.0000
v  -3.8239 19.5118 1.0000
v  0.1761 23.5118 1.0000
v  2.1761 11.5118 -1.0000
v  -1.8239 12.5118 -1.0000
v  -1.8239 19.4485 -1.0000
v  2.1761 19.4485 -1.0000
v  -3.8239 19.5118 -1.0000
v  4.1761 19.5118 -1.0000
v  0.1761 23.5118 -1.0000
# 14 vertices

vn 0.0000 -0.0000 1.0000
vn 0.0000 0.0000 1.0000
vn -0.0000 -0.0000 -1.0000
vn -0.0000 0.0000 -1.0000
vn 1.0000 0.0000 -0.0000
vn 0.7182 -0.6958 -0.0000
vn 0.9298 -0.3680 -0.0000
vn 0.7071 0.7071 -0.0000
vn -0.7071 0.7071 0.0000
vn -0.9298 -0.3680 0.0000
vn -0.7182 -0.6958 0.0000
vn -1.0000 -0.0000 0.0000
vn -0.2425 -0.9701 0.0000
# 13 vertex normals

vt 1.0000 0.0000 0.0000
vt 0.6667 0.0000 0.0000
vt 0.6667 1.0000 0.0000
vt 1.0000 1.0000 0.0000
vt 0.3333 0.0000 0.0000
vt 0.3333 1.0000 0.0000
vt -0.0000 0.5000 0.0000
vt 0.0000 0.0000 0.0000
vt 0.0000 1.0000 0.0000
vt 1.0000 0.5000 0.0000
# 10 texture coords

g Box008
usemtl 01___Default
s 2
f 61/37/60 62/38/60 63/39/61 64/40/60 
f 62/38/60 65/41/60 66/42/61 63/39/61 
f 65/41/60 67/43/61 66/42/61 
s 4
f 68/44/62 69/45/62 70/42/62 71/41/63 
f 71/41/63 70/42/62 72/39/62 73/38/63 
f 73/38/63 72/39/62 74/46/63 
s 8
f 61/44/64 68/45/64 71/42/65 62/41/65 
f 62/41/65 71/42/65 73/39/66 65/38/66 
f 65/38/66 73/39/66 74/40/67 67/37/67 
s 32
f 67/44/68 74/45/68 72/42/69 66/41/69 
f 66/41/69 72/42/69 70/39/70 63/38/70 
f 63/38/70 70/39/70 69/40/71 64/37/71 
s 64
f 64/44/72 69/45/72 68/40/72 61/37/72 
# 11 polygons - 2 triangles

#
# object Box009
#

v  2.1761 7.5118 1.0145
v  2.1761 9.5118 1.0145
v  -1.8239 10.5118 1.0145
v  -1.8239 8.5118 1.0145
v  2.1761 7.5118 -0.9855
v  -1.8239 8.5118 -0.9855
v  -1.8239 10.5118 -0.9855
v  2.1761 9.5118 -0.9855
# 8 vertices

vn 0.0000 0.0000 1.0000
vn -0.0000 -0.0000 -1.0000
vn 1.0000 0.0000 -0.0000
vn 0.2425 0.9701 -0.0000
vn 0.2425 0.9701 0.0000
vn -1.0000 -0.0000 -0.0000
vn -0.2425 -0.9701 0.0000
vn -0.2425 -0.9701 -0.0000
# 8 vertex normals

vt 1.0000 0.0000 0.0000
vt 0.0000 0.0000 0.0000
vt 0.0000 1.0000 0.0000
vt 1.0000 1.0000 0.0000
# 4 texture coords

g Box009
usemtl 01___Default
s 2
f 75/47/73 76/48/73 77/49/73 78/50/73 
s 4
f 79/48/74 80/49/74 81/50/74 82/47/74 
s 8
f 75/48/75 79/49/75 82/50/75 76/47/75 
s 16
f 76/48/76 82/49/76 81/50/76 77/47/77 
s 32
f 77/48/78 81/49/78 80/50/78 78/47/78 
s 64
f 78/48/79 80/49/80 79/50/79 75/47/79 
# 6 polygons

#
# object Box010
#

v  2.1761 3.5118 1.0145
v  2.1761 5.5118 1.0145
v  -1.8239 6.5118 1.0145
v  -1.8239 4.5118 1.0145
v  2.1761 3.5118 -0.9855
v  -1.8239 4.5118 -0.9855
v  -1.8239 6.5118 -0.9855
v  2.1761 5.5118 -0.9855
# 8 vertices

vn 0.0000 0.0000 1.0000
vn -0.0000 -0.0000 -1.0000
vn 1.0000 0.0000 -0.0000
vn 0.2425 0.9701 -0.0000
vn 0.2425 0.9701 0.0000
vn -1.0000 -0.0000 -0.0000
vn -0.2425 -0.9701 0.0000
vn -0.2425 -0.9701 -0.0000
# 8 vertex normals

vt 1.0000 0.0000 0.0000
vt 0.0000 0.0000 0.0000
vt 0.0000 1.0000 0.0000
vt 1.0000 1.0000 0.0000
# 4 texture coords

g Box010
usemtl 01___Default
s 2
f 83/51/81 84/52/81 85/53/81 86/54/81 
s 4
f 87/52/82 88/53/82 89/54/82 90/51/82 
s 8
f 83/52/83 87/53/83 90/54/83 84/51/83 
s 16
f 84/52/84 90/53/84 89/54/84 85/51/85 
s 32
f 85/52/86 89/53/86 88/54/86 86/51/86 
s 64
f 86/52/87 88/53/88 87/54/87 83/51/87 
# 6 polygons

#
# object Box011
#

v  2.1761 -7.6610 1.0145
v  2.1761 -5.6610 1.0145
v  -1.8239 -4.6610 1.0145
v  -1.8239 -6.6610 1.0145
v  2.1761 -7.6610 -0.9855
v  -1.8239 -6.6610 -0.9855
v  -1.8239 -4.6610 -0.9855
v  2.1761 -5.6610 -0.9855
# 8 vertices

vn 0.0000 0.0000 1.0000
vn -0.0000 -0.0000 -1.0000
vn 1.0000 0.0000 -0.0000
vn 0.2425 0.9701 -0.0000
vn 0.2425 0.9701 0.0000
vn -1.0000 -0.0000 -0.0000
vn -0.2425 -0.9701 0.0000
vn -0.2425 -0.9701 -0.0000
# 8 vertex normals

vt 1.0000 0.0000 0.0000
vt 0.0000 0.0000 0.0000
vt 0.0000 1.0000 0.0000
vt 1.0000 1.0000 0.0000
# 4 texture coords

g Box011
usemtl 01___Default
s 2
f 91/55/89 92/56/89 93/57/89 94/58/89 
s 4
f 95/56/90 96/57/90 97/58/90 98/55/90 
s 8
f 91/56/91 95/57/91 98/58/91 92/55/91 
s 16
f 92/56/92 98/57/92 97/58/92 93/55/93 
s 32
f 93/56/94 97/57/94 96/58/94 94/55/94 
s 64
f 94/56/95 96/57/96 95/58/95 91/55/95 
# 6 polygons

#
# object Box012
#

v  2.1761 -11.6610 1.0145
v  2.1761 -9.6610 1.0145
v  -1.8239 -8.6610 1.0145
v  -1.8239 -10.6610 1.0145
v  2.1761 -11.6610 -0.9855
v  -1.8239 -10.6610 -0.9855
v  -1.8239 -8.6610 -0.9855
v  2.1761 -9.6610 -0.9855
# 8 vertices

vn 0.0000 0.0000 1.0000
vn -0.0000 -0.0000 -1.0000
vn 1.0000 0.0000 -0.0000
vn 0.2425 0.9701 -0.0000
vn 0.2425 0.9701 0.0000
vn -1.0000 -0.0000 -0.0000
vn -0.2425 -0.9701 0.0000
vn -0.2425 -0.9701 -0.0000
# 8 vertex normals

vt 1.0000 0.0000 0.0000
vt 0.0000 0.0000 0.0000
vt 0.0000 1.0000 0.0000
vt 1.0000 1.0000 0.0000
# 4 texture coords

g Box012
usemtl 01___Default
s 2
f 99/59/97 100/60/97 101/61/97 102/62/97 
s 4
f 103/60/98 104/61/98 105/62/98 106/59/98 
s 8
f 99/60/99 103/61/99 106/62/99 100/59/99 
s 16
f 100/60/100 106/61/100 105/62/100 101/59/101 
s 32
f 101/60/102 105/61/102 104/62/102 102/59/102 
s 64
f 102/60/103 104/61/104 103/62/103 99/59/103 
# 6 polygons

#
# object Box013
#

v  2.1761 -13.8580 1.0000
v  2.1761 -19.6161 1.0000
v  -1.8239 -19.6161 1.0000
v  -1.8239 -12.8482 1.0000
v  4.1761 -19.6794 1.0000
v  -3.8239 -19.6794 1.0000
v  0.1761 -23.6794 1.0000
v  2.1761 -13.8580 -1.0000
v  -1.8239 -12.8482 -1.0000
v  -1.8239 -19.6161 -1.0000
v  2.1761 -19.6161 -1.0000
v  -3.8239 -19.6794 -1.0000
v  4.1761 -19.6794 -1.0000
v  0.1761 -23.6794 -1.0000
# 14 vertices

vn 0.0000 0.0000 1.0000
vn 0.0000 -0.0000 1.0000
vn -0.0000 0.0000 -1.0000
vn -0.0000 -0.0000 -1.0000
vn 1.0000 0.0000 -0.0000
vn 0.7182 0.6958 -0.0000
vn 0.9298 0.3680 -0.0000
vn 0.7071 -0.7071 -0.0000
vn -0.7071 -0.7071 0.0000
vn -0.9298 0.3680 0.0000
vn -0.7182 0.6958 0.0000
vn -1.0000 -0.0000 0.0000
vn 0.2448 0.9696 -0.0000
# 13 vertex normals

vt 1.0000 0.0000 0.0000
vt 0.6667 0.0000 0.0000
vt 0.6667 1.0000 0.0000
vt 1.0000 1.0000 0.0000
vt 0.3333 0.0000 0.0000
vt 0.3333 1.0000 0.0000
vt -0.0000 0.5000 0.0000
vt 0.0000 0.0000 0.0000
vt 0.0000 1.0000 0.0000
vt 1.0000 0.5000 0.0000
# 10 texture coords

g Box013
usemtl 01___Default
s 2
f 110/66/105 109/65/106 108/64/105 107/63/105 
f 109/65/106 112/68/106 111/67/105 108/64/105 
f 112/68/106 113/69/106 111/67/105 
s 4
f 117/67/108 116/68/107 115/71/107 114/70/107 
f 119/64/108 118/65/107 116/68/107 117/67/108 
f 120/72/108 118/65/107 119/64/108 
s 8
f 108/67/110 117/68/110 114/71/109 107/70/109 
f 111/64/111 119/65/111 117/68/110 108/67/110 
f 113/63/112 120/66/112 119/65/111 111/64/111 
s 32
f 112/67/114 118/68/114 120/71/113 113/70/113 
f 109/64/115 116/65/115 118/68/114 112/67/114 
f 110/63/116 115/66/116 116/65/115 109/64/115 
s 64
f 107/63/117 114/66/117 115/71/117 110/70/117 
# 11 polygons - 2 triangles

