# 3ds Max Wavefront OBJ Exporter v0.97b - (c)2007 guruware
# File Created: 03.06.2016 12:57:45

mtllib heart.mtl

#
# object Line001
#

v  2.2420 -14.6528 -4.7941
v  0.0027 -15.9914 -4.7941
v  0.0063 -11.2039 -5.2817
v  1.4866 -10.3190 -5.2817
v  6.3114 -11.0638 -4.7941
v  4.1766 -7.9465 -5.2817
v  11.1217 -5.9291 -4.7941
v  7.3564 -4.5523 -5.2817
v  15.5833 0.0464 -4.7941
v  10.3057 -0.6023 -5.2817
v  18.6070 6.1578 -4.7941
v  12.3044 3.4376 -5.2817
v  19.1033 11.7003 -4.7941
v  12.6325 7.1014 -5.2817
v  15.9829 15.9690 -4.7941
v  10.5698 9.9231 -5.2817
v  13.1953 16.7727 -4.7941
v  8.7271 10.4544 -5.2817
v  10.2535 16.1129 -4.7941
v  6.7825 10.0182 -5.2817
v  7.3509 14.4788 -4.7941
v  4.8638 8.9380 -5.2817
v  4.6811 12.3592 -4.7941
v  3.0989 7.5369 -5.2817
v  2.4374 10.2434 -4.7941
v  1.6158 6.1383 -5.2817
v  0.8135 8.6203 -4.7941
v  0.5423 5.0653 -5.2817
v  0.0027 7.9789 -4.7941
v  0.0063 4.6414 -5.2817
v  -0.8173 8.6412 -4.7941
v  -0.5357 5.0791 -5.2817
v  -2.4626 10.2772 -4.7941
v  -1.6233 6.1606 -5.2817
v  -4.7306 12.3986 -4.7941
v  -3.1226 7.5629 -5.2817
v  -7.4188 14.5169 -4.7941
v  -4.8995 8.9632 -5.2817
v  -10.3244 16.1437 -4.7941
v  -6.8203 10.0386 -5.2817
v  -13.2448 16.7905 -4.7941
v  -8.7508 10.4662 -5.2817
v  -15.9775 15.9690 -4.7941
v  -10.5572 9.9231 -5.2817
v  -18.9881 11.6761 -4.7941
v  -12.5473 7.0853 -5.2817
v  -18.4491 6.1345 -4.7941
v  -12.1910 3.4221 -5.2817
v  -15.4315 0.0389 -4.7941
v  -10.1962 -0.6073 -5.2817
v  -11.0064 -5.9162 -4.7941
v  -7.2711 -4.5438 -5.2817
v  -6.2450 -11.0360 -4.7941
v  -4.1237 -7.9282 -5.2817
v  -2.2183 -14.6259 -4.7941
v  -1.4618 -10.3013 -5.2817
v  2.8026 -18.3247 -2.0000
v  0.0000 -20.0000 -2.0000
v  7.8957 -13.8329 -2.0000
v  13.9160 -7.4065 -2.0000
v  19.4999 0.0721 -2.0000
v  23.2842 7.7208 -2.0000
v  22.9898 14.6575 -2.0000
v  20.0000 20.0000 -2.0000
v  16.5112 21.0058 -2.0000
v  12.8294 20.1801 -2.0000
v  9.1967 18.1349 -2.0000
v  5.8552 15.4822 -2.0000
v  3.0472 12.8341 -2.0000
v  1.0147 10.8027 -2.0000
v  0.0000 10.0000 -2.0000
v  -1.0262 10.8288 -2.0000
v  -3.0854 12.8764 -2.0000
v  -5.9240 15.5314 -2.0000
v  -9.2883 18.1826 -2.0000
v  -12.9249 20.2186 -2.0000
v  -16.5799 21.0282 -2.0000
v  -20.0000 20.0000 -2.0000
v  -22.8523 14.6272 -2.0000
v  -23.0933 7.6916 -2.0000
v  -19.3166 0.0626 -2.0000
v  -13.7785 -7.3904 -2.0000
v  -7.8193 -13.7981 -2.0000
v  -2.7797 -18.2911 -2.0000
v  2.8026 -18.3247 2.0000
v  0.0000 -20.0000 2.0000
v  7.8957 -13.8329 2.0000
v  13.9160 -7.4065 2.0000
v  19.4999 0.0721 2.0000
v  23.2842 7.7208 2.0000
v  22.9898 14.6575 2.0000
v  20.0000 20.0000 2.0000
v  16.5112 21.0058 2.0000
v  12.8294 20.1801 2.0000
v  9.1967 18.1349 2.0000
v  5.8552 15.4822 2.0000
v  3.0472 12.8341 2.0000
v  1.0147 10.8027 2.0000
v  0.0000 10.0000 2.0000
v  -1.0262 10.8288 2.0000
v  -3.0854 12.8764 2.0000
v  -5.9240 15.5314 2.0000
v  -9.2883 18.1826 2.0000
v  -12.9249 20.2186 2.0000
v  -16.5799 21.0282 2.0000
v  -20.0000 20.0000 2.0000
v  -22.8523 14.6272 2.0000
v  -23.0933 7.6916 2.0000
v  -19.3166 0.0626 2.0000
v  -13.7785 -7.3904 2.0000
v  -7.8193 -13.7981 2.0000
v  -2.7797 -18.2911 2.0000
v  2.2420 -14.6528 4.7941
v  0.0027 -15.9914 4.7941
v  6.3114 -11.0638 4.7941
v  11.1217 -5.9291 4.7941
v  15.5833 0.0464 4.7941
v  18.6070 6.1578 4.7941
v  19.1033 11.7003 4.7941
v  15.9829 15.9690 4.7941
v  13.1953 16.7727 4.7941
v  10.2535 16.1129 4.7941
v  7.3509 14.4788 4.7941
v  4.6811 12.3592 4.7941
v  2.4374 10.2434 4.7941
v  0.8135 8.6203 4.7941
v  0.0027 7.9789 4.7941
v  -0.8173 8.6412 4.7941
v  -2.4626 10.2772 4.7941
v  -4.7306 12.3986 4.7941
v  -7.4188 14.5169 4.7941
v  -10.3244 16.1437 4.7941
v  -13.2448 16.7905 4.7941
v  -15.9775 15.9690 4.7941
v  -18.9881 11.6761 4.7941
v  -18.4491 6.1345 4.7941
v  -15.4315 0.0389 4.7941
v  -11.0064 -5.9162 4.7941
v  -6.2450 -11.0360 4.7941
v  -2.2183 -14.6259 4.7941
v  1.4866 -10.3190 5.2817
v  0.0063 -11.2039 5.2817
v  4.1766 -7.9465 5.2817
v  7.3564 -4.5523 5.2817
v  10.3057 -0.6023 5.2817
v  12.3044 3.4376 5.2817
v  12.6325 7.1014 5.2817
v  10.5698 9.9231 5.2817
v  8.7271 10.4544 5.2817
v  6.7825 10.0182 5.2817
v  4.8638 8.9380 5.2817
v  3.0989 7.5369 5.2817
v  1.6158 6.1383 5.2817
v  0.5423 5.0653 5.2817
v  0.0063 4.6414 5.2817
v  -0.5357 5.0791 5.2817
v  -1.6233 6.1606 5.2817
v  -3.1226 7.5629 5.2817
v  -4.8995 8.9632 5.2817
v  -6.8203 10.0386 5.2817
v  -8.7508 10.4662 5.2817
v  -10.5572 9.9231 5.2817
v  -12.5473 7.0853 5.2817
v  -12.1910 3.4221 5.2817
v  -10.1962 -0.6073 5.2817
v  -7.2711 -4.5438 5.2817
v  -4.1237 -7.9282 5.2817
v  -1.4618 -10.3013 5.2817
v  1.4866 -10.3190 -1.8914
v  0.0063 -11.2039 -1.8914
v  -1.4618 -10.3013 -1.8914
v  4.1766 -7.9465 -1.8914
v  -4.1237 -7.9282 -1.8914
v  7.3564 -4.5523 -1.8914
v  -7.2711 -4.5438 -1.8914
v  -10.1962 -0.6073 -1.8914
v  10.3057 -0.6023 -1.8914
v  -12.1910 3.4221 -1.8914
v  -12.5473 7.0853 -1.8914
v  -10.5572 9.9231 -1.8914
v  -8.7508 10.4662 -1.8914
v  -6.8203 10.0386 -1.8914
v  -4.8995 8.9632 -1.8914
v  -3.1226 7.5629 -1.8914
v  -1.6233 6.1606 -1.8914
v  -0.5357 5.0791 -1.8914
v  0.0063 4.6414 -1.8914
v  0.5423 5.0653 -1.8914
v  1.6158 6.1383 -1.8914
v  3.0989 7.5369 -1.8914
v  4.8638 8.9380 -1.8914
v  12.3044 3.4376 -1.8914
v  6.7825 10.0182 -1.8914
v  8.7271 10.4544 -1.8914
v  10.5698 9.9231 -1.8914
v  12.6325 7.1014 -1.8914
v  12.3044 3.4376 1.8914
v  12.6325 7.1014 1.8914
v  10.5698 9.9231 1.8914
v  8.7271 10.4544 1.8914
v  6.7825 10.0182 1.8914
v  4.8638 8.9380 1.8914
v  -6.8203 10.0386 1.8914
v  -8.7508 10.4662 1.8914
v  -10.5572 9.9231 1.8914
v  -4.8995 8.9632 1.8914
v  -3.1226 7.5629 1.8914
v  -1.6233 6.1606 1.8914
v  -0.5357 5.0791 1.8914
v  0.0063 4.6414 1.8914
v  -1.4618 -10.3013 1.8914
v  0.0063 -11.2039 1.8914
v  1.4866 -10.3190 1.8914
v  4.1766 -7.9465 1.8914
v  -4.1237 -7.9282 1.8914
v  7.3564 -4.5523 1.8914
v  -7.2711 -4.5438 1.8914
v  -10.1962 -0.6073 1.8914
v  10.3057 -0.6023 1.8914
v  -12.1910 3.4221 1.8914
v  -12.5473 7.0853 1.8914
v  0.5423 5.0653 1.8914
v  1.6158 6.1383 1.8914
v  3.0989 7.5369 1.8914
# 224 vertices

vn 0.2519 -0.3331 -0.9086
vn -0.0035 -0.4189 -0.9080
vn -0.0010 -0.1013 -0.9949
vn 0.0763 -0.0984 -0.9922
vn 0.2986 -0.3051 -0.9043
vn 0.0910 -0.0928 -0.9915
vn 0.3267 -0.2753 -0.9041
vn 0.0977 -0.0840 -0.9917
vn 0.3480 -0.2227 -0.9107
vn 0.1000 -0.0673 -0.9927
vn 0.3605 -0.1134 -0.9259
vn 0.0924 -0.0358 -0.9951
vn 0.3554 0.0549 -0.9331
vn 0.0676 0.0106 -0.9977
vn 0.1614 0.2511 -0.9544
vn 0.0330 0.0510 -0.9982
vn -0.0230 0.3721 -0.9279
vn -0.0073 0.0821 -0.9966
vn -0.1969 0.4305 -0.8808
vn -0.0547 0.1106 -0.9924
vn -0.3192 0.4453 -0.8365
vn -0.0990 0.1312 -0.9864
vn -0.3925 0.4419 -0.8066
vn -0.1302 0.1420 -0.9813
vn -0.4248 0.4348 -0.7940
vn -0.1433 0.1450 -0.9790
vn -0.3848 0.4391 -0.8118
vn -0.1211 0.1440 -0.9821
vn 0.0023 0.3771 -0.9262
vn 0.0005 0.1446 -0.9895
vn 0.3883 0.4392 -0.8102
vn 0.1229 0.1441 -0.9819
vn 0.4231 0.4358 -0.7944
vn 0.1426 0.1451 -0.9791
vn 0.3902 0.4427 -0.8073
vn 0.1291 0.1419 -0.9814
vn 0.3173 0.4457 -0.8371
vn 0.0982 0.1312 -0.9865
vn 0.1956 0.4304 -0.8812
vn 0.0544 0.1105 -0.9924
vn 0.0209 0.3713 -0.9283
vn 0.0068 0.0817 -0.9966
vn -0.1778 0.2464 -0.9527
vn -0.0339 0.0502 -0.9982
vn -0.3355 0.0777 -0.9388
vn -0.0686 0.0097 -0.9976
vn -0.3564 -0.1228 -0.9262
vn -0.0933 -0.0364 -0.9950
vn -0.3498 -0.2231 -0.9099
vn -0.1008 -0.0676 -0.9926
vn -0.3287 -0.2752 -0.9034
vn -0.0986 -0.0841 -0.9916
vn -0.3009 -0.3047 -0.9036
vn -0.0919 -0.0928 -0.9914
vn -0.2554 -0.3319 -0.9081
vn -0.0776 -0.0983 -0.9921
vn 0.5311 -0.7395 -0.4135
vn -0.0054 -0.9123 -0.4094
vn 0.6363 -0.6586 -0.4016
vn 0.7037 -0.5866 -0.4009
vn 0.7792 -0.4684 -0.4164
vn 0.8761 -0.1676 -0.4521
vn 0.8496 0.2460 -0.4666
vn 0.5474 0.6909 -0.4722
vn 0.0474 0.8875 -0.4584
vn -0.3079 0.8657 -0.3947
vn -0.5158 0.7961 -0.3165
vn -0.6251 0.7354 -0.2618
vn -0.6750 0.6990 -0.2361
vn -0.6511 0.7195 -0.2416
vn 0.0059 0.9362 -0.3514
vn 0.6534 0.7177 -0.2408
vn 0.6725 0.7012 -0.2368
vn 0.6221 0.7376 -0.2626
vn 0.5134 0.7974 -0.3171
vn 0.3056 0.8662 -0.3953
vn -0.0536 0.8868 -0.4590
vn -0.5605 0.6768 -0.4773
vn -0.8474 0.2459 -0.4705
vn -0.8808 -0.1818 -0.4371
vn -0.7802 -0.4681 -0.4149
vn -0.7058 -0.5849 -0.3997
vn -0.6396 -0.6561 -0.4006
vn -0.5381 -0.7350 -0.4125
vn 0.5311 -0.7395 0.4135
vn -0.0054 -0.9123 0.4094
vn 0.6363 -0.6586 0.4016
vn 0.7037 -0.5866 0.4009
vn 0.7792 -0.4684 0.4164
vn 0.8808 -0.1781 0.4386
vn 0.8435 0.2580 0.4710
vn 0.5495 0.6855 0.4776
vn 0.0474 0.8875 0.4584
vn -0.3079 0.8657 0.3947
vn -0.5159 0.7961 0.3165
vn -0.6251 0.7354 0.2618
vn -0.6750 0.6990 0.2361
vn -0.6511 0.7195 0.2416
vn 0.0059 0.9362 0.3514
vn 0.6534 0.7177 0.2408
vn 0.6725 0.7012 0.2368
vn 0.6221 0.7376 0.2626
vn 0.5134 0.7974 0.3171
vn 0.3056 0.8662 0.3953
vn -0.0536 0.8868 0.4590
vn -0.5585 0.6822 0.4719
vn -0.8536 0.2336 0.4656
vn -0.8761 -0.1711 0.4508
vn -0.7802 -0.4681 0.4149
vn -0.7058 -0.5849 0.3997
vn -0.6396 -0.6561 0.4006
vn -0.5381 -0.7350 0.4125
vn 0.2519 -0.3331 0.9086
vn -0.0035 -0.4189 0.9080
vn 0.2986 -0.3052 0.9043
vn 0.3267 -0.2753 0.9041
vn 0.3480 -0.2227 0.9107
vn 0.3547 -0.1211 0.9271
vn 0.3322 0.0821 0.9396
vn 0.1731 0.2500 0.9526
vn -0.0230 0.3721 0.9279
vn -0.1969 0.4305 0.8808
vn -0.3192 0.4453 0.8365
vn -0.3925 0.4419 0.8066
vn -0.4248 0.4348 0.7940
vn -0.3848 0.4391 0.8118
vn 0.0022 0.3771 0.9262
vn 0.3883 0.4392 0.8102
vn 0.4231 0.4358 0.7944
vn 0.3902 0.4427 0.8073
vn 0.3173 0.4457 0.8371
vn 0.1956 0.4304 0.8812
vn 0.0209 0.3713 0.9283
vn -0.1656 0.2477 0.9546
vn -0.3589 0.0500 0.9320
vn -0.3622 -0.1151 0.9250
vn -0.3498 -0.2231 0.9099
vn -0.3287 -0.2752 0.9034
vn -0.3009 -0.3047 0.9036
vn -0.2554 -0.3319 0.9081
vn 0.0763 -0.0984 0.9922
vn -0.0010 -0.1013 0.9949
vn 0.0910 -0.0928 0.9915
vn 0.0977 -0.0840 0.9917
vn 0.1000 -0.0673 0.9927
vn 0.0924 -0.0358 0.9951
vn 0.0676 0.0106 0.9977
vn 0.0330 0.0510 0.9982
vn -0.0073 0.0821 0.9966
vn -0.0547 0.1106 0.9924
vn -0.0990 0.1312 0.9864
vn -0.1302 0.1420 0.9813
vn -0.1433 0.1450 0.9790
vn -0.1211 0.1440 0.9821
vn 0.0005 0.1446 0.9895
vn 0.1229 0.1441 0.9819
vn 0.1426 0.1451 0.9791
vn 0.1291 0.1419 0.9814
vn 0.0982 0.1312 0.9865
vn 0.0544 0.1105 0.9924
vn 0.0068 0.0817 0.9966
vn -0.0339 0.0502 0.9982
vn -0.0686 0.0097 0.9976
vn -0.0933 -0.0364 0.9950
vn -0.1008 -0.0676 0.9926
vn -0.0986 -0.0841 0.9916
vn -0.0919 -0.0928 0.9914
vn -0.0776 -0.0983 0.9921
vn 0.0000 0.0000 -1.0000
vn -0.0000 0.0000 -1.0000
vn -0.0000 -0.0000 -1.0000
vn 0.0000 -0.0000 1.0000
vn -0.5131 0.8583 0.0000
vn 0.5237 0.8519 0.0000
vn 0.6655 0.7464 0.0000
vn 0.7323 0.6810 0.0000
vn 0.8027 0.5964 0.0000
vn 0.8962 0.4437 0.0000
vn 0.9953 0.0968 0.0000
vn 0.8187 -0.5742 -0.0000
vn 0.2879 -0.9577 -0.0000
vn -0.2163 -0.9763 -0.0000
vn -0.4885 -0.8726 -0.0000
vn -0.6189 -0.7854 -0.0000
vn -0.6831 -0.7303 -0.0000
vn -0.7051 -0.7091 -0.0000
vn -0.6283 -0.7780 -0.0000
vn 0.6204 -0.7843 -0.0000
vn 0.7069 -0.7073 -0.0000
vn 0.6861 -0.7275 -0.0000
vn 0.6218 -0.7832 -0.0000
vn 0.4906 -0.8714 -0.0000
vn 0.2188 -0.9758 -0.0000
vn -0.2770 -0.9609 -0.0000
vn -0.8073 -0.5901 -0.0000
vn -0.9960 0.0892 0.0000
vn -0.8963 0.4435 0.0000
vn -0.8013 0.5983 0.0000
vn -0.7298 0.6837 0.0000
vn -0.6615 0.7500 0.0000
# 200 vertex normals

g Line001
usemtl 01___Default
s 1
f 1//1 2//2 3//3 4//4 
s 3
f 5//5 1//1 4//4 6//6 
s 2
f 7//7 5//5 6//6 8//8 
f 9//9 7//7 8//8 10//10 
f 11//11 9//9 10//10 12//12 
f 13//13 11//11 12//12 14//14 
f 15//15 13//13 14//14 16//16 
f 17//17 15//15 16//16 18//18 
f 19//19 17//17 18//18 20//20 
f 21//21 19//19 20//20 22//22 
f 23//23 21//21 22//22 24//24 
f 25//25 23//23 24//24 26//26 
f 27//27 25//25 26//26 28//28 
f 29//29 27//27 28//28 30//30 
f 31//31 29//29 30//30 32//32 
f 33//33 31//31 32//32 34//34 
f 35//35 33//33 34//34 36//36 
f 37//37 35//35 36//36 38//38 
f 39//39 37//37 38//38 40//40 
f 41//41 39//39 40//40 42//42 
f 43//43 41//41 42//42 44//44 
f 45//45 43//43 44//44 46//46 
f 47//47 45//45 46//46 48//48 
f 49//49 47//47 48//48 50//50 
f 51//51 49//49 50//50 52//52 
f 53//53 51//51 52//52 54//54 
f 55//55 53//53 54//54 56//56 
s 3
f 2//2 55//55 56//56 3//3 
s 1
f 57//57 58//58 2//2 1//1 
s 3
f 59//59 57//57 1//1 5//5 
s 2
f 60//60 59//59 5//5 7//7 
f 61//61 60//60 7//7 9//9 
f 62//62 61//61 9//9 11//11 
f 63//63 62//62 11//11 13//13 
f 64//64 63//63 13//13 15//15 
f 65//65 64//64 15//15 17//17 
f 66//66 65//65 17//17 19//19 
f 67//67 66//66 19//19 21//21 
f 68//68 67//67 21//21 23//23 
f 69//69 68//68 23//23 25//25 
f 70//70 69//69 25//25 27//27 
f 71//71 70//70 27//27 29//29 
f 72//72 71//71 29//29 31//31 
f 73//73 72//72 31//31 33//33 
f 74//74 73//73 33//33 35//35 
f 75//75 74//74 35//35 37//37 
f 76//76 75//75 37//37 39//39 
f 77//77 76//76 39//39 41//41 
f 78//78 77//77 41//41 43//43 
f 79//79 78//78 43//43 45//45 
f 80//80 79//79 45//45 47//47 
f 81//81 80//80 47//47 49//49 
f 82//82 81//81 49//49 51//51 
f 83//83 82//82 51//51 53//53 
f 84//84 83//83 53//53 55//55 
s 3
f 58//58 84//84 55//55 2//2 
s 1
f 85//85 86//86 58//58 57//57 
s 3
f 87//87 85//85 57//57 59//59 
s 2
f 88//88 87//87 59//59 60//60 
f 89//89 88//88 60//60 61//61 
f 90//90 89//89 61//61 62//62 
f 91//91 90//90 62//62 63//63 
f 92//92 91//91 63//63 64//64 
f 93//93 92//92 64//64 65//65 
f 94//94 93//93 65//65 66//66 
f 95//95 94//94 66//66 67//67 
f 96//96 95//95 67//67 68//68 
f 97//97 96//96 68//68 69//69 
f 98//98 97//97 69//69 70//70 
f 99//99 98//98 70//70 71//71 
f 100//100 99//99 71//71 72//72 
f 101//101 100//100 72//72 73//73 
f 102//102 101//101 73//73 74//74 
f 103//103 102//102 74//74 75//75 
f 104//104 103//103 75//75 76//76 
f 105//105 104//104 76//76 77//77 
f 106//106 105//105 77//77 78//78 
f 107//107 106//106 78//78 79//79 
f 108//108 107//107 79//79 80//80 
f 109//109 108//108 80//80 81//81 
f 110//110 109//109 81//81 82//82 
f 111//111 110//110 82//82 83//83 
f 112//112 111//111 83//83 84//84 
s 3
f 86//86 112//112 84//84 58//58 
s 1
f 113//113 114//114 86//86 85//85 
s 3
f 115//115 113//113 85//85 87//87 
s 2
f 116//116 115//115 87//87 88//88 
f 117//117 116//116 88//88 89//89 
f 118//118 117//117 89//89 90//90 
f 119//119 118//118 90//90 91//91 
f 120//120 119//119 91//91 92//92 
f 121//121 120//120 92//92 93//93 
f 122//122 121//121 93//93 94//94 
f 123//123 122//122 94//94 95//95 
f 124//124 123//123 95//95 96//96 
f 125//125 124//124 96//96 97//97 
f 126//126 125//125 97//97 98//98 
f 127//127 126//126 98//98 99//99 
f 128//128 127//127 99//99 100//100 
f 129//129 128//128 100//100 101//101 
f 130//130 129//129 101//101 102//102 
f 131//131 130//130 102//102 103//103 
f 132//132 131//131 103//103 104//104 
f 133//133 132//132 104//104 105//105 
f 134//134 133//133 105//105 106//106 
f 135//135 134//134 106//106 107//107 
f 136//136 135//135 107//107 108//108 
f 137//137 136//136 108//108 109//109 
f 138//138 137//137 109//109 110//110 
f 139//139 138//138 110//110 111//111 
f 140//140 139//139 111//111 112//112 
s 3
f 114//114 140//140 112//112 86//86 
s 1
f 141//141 142//142 114//114 113//113 
s 3
f 143//143 141//141 113//113 115//115 
s 2
f 144//144 143//143 115//115 116//116 
f 145//145 144//144 116//116 117//117 
f 146//146 145//145 117//117 118//118 
f 147//147 146//146 118//118 119//119 
f 148//148 147//147 119//119 120//120 
f 149//149 148//148 120//120 121//121 
f 150//150 149//149 121//121 122//122 
f 151//151 150//150 122//122 123//123 
f 152//152 151//151 123//123 124//124 
f 153//153 152//152 124//124 125//125 
f 154//154 153//153 125//125 126//126 
f 155//155 154//154 126//126 127//127 
f 156//156 155//155 127//127 128//128 
f 157//157 156//156 128//128 129//129 
f 158//158 157//157 129//129 130//130 
f 159//159 158//158 130//130 131//131 
f 160//160 159//159 131//131 132//132 
f 161//161 160//160 132//132 133//133 
f 162//162 161//161 133//133 134//134 
f 163//163 162//162 134//134 135//135 
f 164//164 163//163 135//135 136//136 
f 165//165 164//164 136//136 137//137 
f 166//166 165//165 137//137 138//138 
f 167//167 166//166 138//138 139//139 
f 168//168 167//167 139//139 140//140 
s 3
f 142//142 168//168 140//140 114//114 
s 16
f 169//169 170//169 171//169 172//169 
f 172//169 171//169 173//170 174//170 
f 174//170 173//170 175//170 176//170 
f 177//170 174//170 176//170 178//170 
f 177//170 178//170 179//170 180//171 
f 180//171 181//169 182//169 183//169 
f 180//171 183//169 184//169 185//169 
f 180//171 185//169 186//169 187//169 
f 177//170 180//171 187//169 188//169 
f 177//170 188//169 189//169 190//169 
f 177//170 190//169 191//169 192//169 
f 192//169 191//169 193//169 194//169 
f 192//169 194//169 195//169 196//169 
f 197//172 198//172 199//172 200//172 
f 197//172 200//172 201//172 202//172 
f 203//172 204//172 205//172 206//172 
f 207//172 206//172 205//172 208//172 
f 209//172 208//172 205//172 210//172 
f 211//172 212//172 213//172 214//172 
f 215//172 211//172 214//172 216//172 
f 217//172 215//172 216//172 218//172 
f 218//172 216//172 219//172 220//172 
f 221//172 220//172 219//172 205//172 
f 210//172 205//172 219//172 222//172 
f 223//172 222//172 219//172 224//172 
f 202//172 224//172 219//172 197//172 
s off
f 4//173 3//173 170//173 169//173 
f 3//174 56//174 171//174 170//174 
f 56//175 54//175 173//175 171//175 
f 54//176 52//176 175//176 173//176 
f 52//177 50//177 176//177 175//177 
f 50//178 48//178 178//178 176//178 
f 48//179 46//179 179//179 178//179 
f 46//180 44//180 180//180 179//180 
f 44//181 42//181 181//181 180//181 
f 42//182 40//182 182//182 181//182 
f 40//183 38//183 183//183 182//183 
f 38//184 36//184 184//184 183//184 
f 36//185 34//185 185//185 184//185 
f 34//186 32//186 186//186 185//186 
f 32//187 30//187 187//187 186//187 
f 30//188 28//188 188//188 187//188 
f 28//189 26//189 189//189 188//189 
f 26//190 24//190 190//190 189//190 
f 24//191 22//191 191//191 190//191 
f 22//192 20//192 193//192 191//192 
f 20//193 18//193 194//193 193//193 
f 18//194 16//194 195//194 194//194 
f 16//195 14//195 196//195 195//195 
f 14//196 12//196 192//196 196//196 
f 12//197 10//197 177//197 192//197 
f 10//198 8//198 174//198 177//198 
f 8//199 6//199 172//199 174//199 
f 6//200 4//200 169//200 172//200 
f 142//173 141//173 213//173 212//173 
f 141//200 143//200 214//200 213//200 
f 143//199 144//199 216//199 214//199 
f 144//198 145//198 219//198 216//198 
f 145//197 146//197 197//197 219//197 
f 146//196 147//196 198//196 197//196 
f 147//195 148//195 199//195 198//195 
f 148//194 149//194 200//194 199//194 
f 149//193 150//193 201//193 200//193 
f 150//192 151//192 202//192 201//192 
f 151//191 152//191 224//191 202//191 
f 152//190 153//190 223//190 224//190 
f 153//189 154//189 222//189 223//189 
f 154//188 155//188 210//188 222//188 
f 155//187 156//187 209//187 210//187 
f 156//186 157//186 208//186 209//186 
f 157//185 158//185 207//185 208//185 
f 158//184 159//184 206//184 207//184 
f 159//183 160//183 203//183 206//183 
f 160//182 161//182 204//182 203//182 
f 161//181 162//181 205//181 204//181 
f 162//180 163//180 221//180 205//180 
f 163//179 164//179 220//179 221//179 
f 164//178 165//178 218//178 220//178 
f 165//177 166//177 217//177 218//177 
f 166//176 167//176 215//176 217//176 
f 167//175 168//175 211//175 215//175 
f 168//174 142//174 212//174 211//174 
# 222 polygons

