# 3ds Max Wavefront OBJ Exporter v0.97b - (c)2007 guruware
# File Created: 03.06.2016 14:49:03

mtllib onemoremomb.mtl

#
# object Box006
#

v  4.9265 -1.0582 1.0145
v  6.9240 -1.0680 1.0145
v  7.4162 0.8680 1.0145
v  5.4187 0.8778 1.0145
v  4.9265 -1.0582 -0.9855
v  5.4187 0.8778 -0.9855
v  7.4162 0.8680 -0.9855
v  6.9240 -1.0680 -0.9855
v  4.4010 -3.1253 1.0145
v  4.4010 -3.1253 -0.9855
v  6.4010 -3.1253 -0.9855
v  6.4010 -3.1253 1.0145
v  7.9622 3.0158 1.0145
v  7.9622 3.0158 -0.9855
v  5.9622 3.0158 -0.9855
v  5.9622 3.0158 1.0145
v  9.6411 0.8571 1.0145
v  9.1389 -1.0788 1.0145
v  9.1389 -1.0788 -0.9855
v  9.6411 0.8571 -0.9855
v  2.8025 -1.0478 1.0145
v  3.3047 0.8881 1.0145
v  3.3047 0.8881 -0.9855
v  2.8025 -1.0478 -0.9855
# 24 vertices

vn 0.0000 -0.0000 1.0000
vn -0.0000 0.0000 -1.0000
vn 0.0000 -1.0000 -0.0000
vn 0.0000 1.0000 -0.0000
vn 0.9692 -0.2464 0.0000
vn 0.9692 -0.2464 -0.0000
vn -0.9692 0.2464 0.0000
vn 0.0000 0.0000 -1.0000
vn -0.9692 0.2464 -0.0000
vn 0.9680 -0.2511 -0.0000
vn -0.9680 0.2511 -0.0000
vn -0.9680 0.2511 0.0000
vn -0.0049 -1.0000 -0.0000
vn 0.0049 1.0000 0.0000
vn 0.0049 1.0000 -0.0000
# 15 vertex normals

vt 1.0000 0.3366 0.0000
vt 0.0000 0.3350 0.0000
vt 0.0000 0.6503 0.0000
vt 1.0000 0.6518 0.0000
vt 0.0000 0.3366 0.0000
vt 0.0000 0.6518 0.0000
vt 1.0000 0.6503 0.0000
vt 1.0000 0.3350 0.0000
vt 0.0000 0.0000 0.0000
vt 0.0000 1.0000 0.0000
vt 1.0000 1.0000 0.0000
vt 1.0000 0.0000 0.0000
vt 0.6503 0.0000 0.0000
vt 0.6503 1.0000 0.0000
vt 0.6634 0.0000 0.0000
vt 0.6634 1.0000 0.0000
vt 0.3350 0.0000 0.0000
vt 0.3350 1.0000 0.0000
vt 0.3482 0.0000 0.0000
vt 0.3482 1.0000 0.0000
vt 0.3495 0.0000 0.0000
vt 0.3495 1.0000 0.0000
vt 0.0000 0.6648 0.0000
vt 1.0000 0.6664 0.0000
vt 0.3336 0.0000 0.0000
vt 0.3336 1.0000 0.0000
vt 0.0000 0.3495 0.0000
vt 1.0000 0.3511 0.0000
vt 0.6648 0.0000 0.0000
vt 0.6648 1.0000 0.0000
vt 1.0000 0.3495 0.0000
vt 0.0000 0.3511 0.0000
vt 0.6489 0.0000 0.0000
vt 0.6489 1.0000 0.0000
vt 1.0000 0.6648 0.0000
vt 0.0000 0.6664 0.0000
# 36 texture coords

g Box006
usemtl 01___Default
s 2
f 1/1/1 2/2/1 3/3/1 4/4/1 
s 4
f 5/5/2 6/6/2 7/7/2 8/8/2 
s 8
f 9/9/3 10/10/3 11/11/3 12/12/3 
s 32
f 13/9/4 14/10/4 15/11/4 16/12/4 
s 16
f 3/13/5 7/14/6 14/11/5 13/12/5 
s 2
f 2/2/1 1/1/1 9/12/1 12/9/1 
s 64
f 1/15/7 5/16/7 10/11/7 9/12/7 
s 2
f 3/3/1 13/10/1 16/11/1 4/4/1 
s 16
f 2/17/6 12/9/6 11/10/6 8/18/6 
s 4
f 7/7/2 6/6/2 15/10/2 14/11/8 
s 64
f 4/19/9 16/9/9 15/10/9 6/20/7 
s 4
f 8/8/2 11/12/8 10/9/2 5/5/2 
s 8
f 17/9/10 18/12/10 19/11/10 20/10/10 
s 32
f 21/9/11 22/12/11 23/11/11 24/10/12 
s 1
f 2/21/13 8/22/13 19/10/13 18/9/13 
f 1/23/1 4/24/1 22/11/1 21/10/1 
s 8
f 4/25/14 6/26/14 23/10/14 22/9/15 
s 4
f 2/27/1 18/9/1 17/12/1 3/28/1 
s 16
f 1/29/13 21/12/13 24/11/13 5/30/13 
s 2
f 8/31/2 7/32/2 20/9/2 19/12/2 
s 64
f 3/33/14 17/12/14 20/11/14 7/34/14 
s 1
f 5/35/2 24/11/2 23/10/2 6/36/2 
# 22 polygons

#
# object Box008
#

v  18.3711 -5.9639 1.0000
v  20.8219 4.0509 1.0000
v  16.8219 4.0509 1.0000
v  14.3711 -5.9569 1.0000
v  21.8023 7.8630 1.0000
v  13.8576 4.1142 1.0000
v  17.8247 7.8151 1.0000
v  18.3711 -5.9639 -1.0000
v  14.3711 -5.9569 -1.0000
v  16.8219 4.0509 -1.0000
v  20.8219 4.0509 -1.0000
v  13.8576 4.1142 -1.0000
v  21.8023 7.8630 -1.0000
v  17.8247 7.8151 -1.0000
# 14 vertices

vn 0.0000 -0.0000 1.0000
vn 0.0000 0.0000 1.0000
vn -0.0000 0.0000 1.0000
vn -0.0000 0.0000 -1.0000
vn -0.0000 -0.0000 -1.0000
vn 0.9713 -0.2377 -0.0000
vn 0.9699 -0.2434 -0.0000
vn 0.7866 0.6175 -0.0000
vn 0.7866 0.6175 0.0000
vn -0.0120 0.9999 0.0000
vn -0.6821 0.7312 0.0000
vn -0.9342 -0.3566 0.0000
vn -0.7933 -0.6089 0.0000
vn -0.9713 0.2379 0.0000
vn -0.0017 -1.0000 0.0000
# 15 vertex normals

vt 1.0000 0.0000 0.0000
vt 0.6667 0.0000 0.0000
vt 0.6667 1.0000 0.0000
vt 1.0000 1.0000 0.0000
vt 0.3333 0.0000 0.0000
vt 0.3333 1.0000 0.0000
vt -0.0000 0.5000 0.0000
vt 0.0000 0.0000 0.0000
vt 0.0000 1.0000 0.0000
vt 1.0000 0.5000 0.0000
# 10 texture coords

g Box008
usemtl 01___Default
s 2
f 25/37/16 26/38/16 27/39/17 28/40/16 
f 26/38/16 29/41/16 30/42/17 27/39/17 
f 29/41/16 31/43/18 30/42/17 
s 4
f 32/44/19 33/45/19 34/42/20 35/41/19 
f 35/41/19 34/42/20 36/39/19 37/38/19 
f 37/38/19 36/39/19 38/46/19 
s 8
f 25/44/21 32/45/21 35/42/22 26/41/22 
f 26/41/22 35/42/22 37/39/23 29/38/24 
f 29/38/24 37/39/23 38/40/25 31/37/25 
s 32
f 31/44/26 38/45/26 36/42/27 30/41/27 
f 30/41/27 36/42/27 34/39/28 27/38/28 
f 27/38/28 34/39/28 33/40/29 28/37/29 
s 64
f 28/44/30 33/45/30 32/40/30 25/37/30 
# 11 polygons - 2 triangles

#
# object GeoSphere001
#

v  -10.0000 -0.0000 10.0000
v  -5.0000 -0.0000 8.6603
v  -10.0000 5.0000 8.6603
v  -1.3397 -0.0000 5.0000
v  -4.5228 5.4772 6.3246
v  -10.0000 8.6603 5.0000
v  0.0000 0.0000 -0.0000
v  -1.3397 5.0000 0.0000
v  -5.0000 8.6603 0.0000
v  -10.0000 10.0000 0.0000
v  -15.0000 -0.0000 8.6603
v  -15.4772 5.4772 6.3246
v  -18.6603 -0.0000 5.0000
v  -15.0000 8.6603 0.0000
v  -18.6603 5.0000 0.0000
v  -20.0000 0.0000 -0.0000
v  -10.0000 -5.0000 8.6603
v  -15.4772 -5.4772 6.3246
v  -10.0000 -8.6603 5.0000
v  -18.6603 -5.0000 -0.0000
v  -15.0000 -8.6603 -0.0000
v  -10.0000 -10.0000 -0.0000
v  -4.5228 -5.4772 6.3246
v  -5.0000 -8.6603 -0.0000
v  -1.3397 -5.0000 -0.0000
v  -10.0000 0.0000 -10.0000
v  -10.0000 5.0000 -8.6603
v  -5.0000 0.0000 -8.6603
v  -10.0000 8.6603 -5.0000
v  -4.5228 5.4772 -6.3246
v  -1.3397 0.0000 -5.0000
v  -15.0000 0.0000 -8.6603
v  -18.6603 0.0000 -5.0000
v  -15.4772 5.4772 -6.3246
v  -10.0000 -5.0000 -8.6603
v  -10.0000 -8.6603 -5.0000
v  -15.4772 -5.4772 -6.3246
v  -4.5228 -5.4772 -6.3246
# 38 vertices

vn 0.0000 -0.0000 1.0000
vn 0.4917 -0.0000 0.8708
vn 0.0000 0.4917 0.8708
vn 0.8707 -0.0000 0.4917
vn 0.5593 0.5593 0.6118
vn 0.0000 0.8707 0.4917
vn 1.0000 -0.0000 0.0000
vn 0.8630 0.5052 0.0000
vn 0.5052 0.8630 0.0000
vn 0.0000 1.0000 0.0000
vn -0.4917 -0.0000 0.8708
vn -0.5593 0.5593 0.6118
vn -0.8707 -0.0000 0.4917
vn -0.5052 0.8630 0.0000
vn -0.8630 0.5052 0.0000
vn -1.0000 -0.0000 0.0000
vn -0.0000 -0.4917 0.8708
vn -0.5593 -0.5593 0.6118
vn -0.0000 -0.8707 0.4917
vn -0.8630 -0.5052 -0.0000
vn -0.5052 -0.8630 -0.0000
vn 0.0000 -1.0000 -0.0000
vn 0.5593 -0.5593 0.6118
vn 0.5052 -0.8630 -0.0000
vn 0.8630 -0.5052 -0.0000
vn 0.0000 0.0000 -1.0000
vn -0.0000 0.4917 -0.8708
vn 0.4917 0.0000 -0.8708
vn 0.0000 0.8707 -0.4917
vn 0.5593 0.5593 -0.6118
vn 0.8707 0.0000 -0.4917
vn -0.4917 0.0000 -0.8708
vn -0.8707 0.0000 -0.4917
vn -0.5593 0.5593 -0.6118
vn 0.0000 -0.4917 -0.8708
vn -0.0000 -0.8707 -0.4917
vn -0.5593 -0.5593 -0.6118
vn 0.5593 -0.5593 -0.6118
# 38 vertex normals

vt 0.6250 1.0000 10.0000
vt 0.5000 0.8333 10.0000
vt 0.7500 0.8333 10.0000
vt 0.5000 0.6667 10.0000
vt 0.6250 0.7180 10.0000
vt 0.7500 0.6667 10.0000
vt 0.5000 0.5000 10.0000
vt 0.5833 0.5000 10.0000
vt 0.6667 0.5000 10.0000
vt 0.7500 0.5000 10.0000
vt 0.8750 1.0000 10.0000
vt 1.0000 0.8333 10.0000
vt 0.8750 0.7180 10.0000
vt 1.0000 0.6667 10.0000
vt 0.8333 0.5000 10.0000
vt 0.9167 0.5000 10.0000
vt 1.0000 0.5000 10.0000
vt 0.1250 1.0000 10.0000
vt 0.0000 0.8333 10.0000
vt 0.2500 0.8333 10.0000
vt 0.0000 0.6667 10.0000
vt 0.1250 0.7180 10.0000
vt 0.2500 0.6667 10.0000
vt 0.0000 0.5000 10.0000
vt 0.0833 0.5000 10.0000
vt 0.1667 0.5000 10.0000
vt 0.2500 0.5000 10.0000
vt 0.3750 1.0000 10.0000
vt 0.3750 0.7180 10.0000
vt 0.3333 0.5000 10.0000
vt 0.4167 0.5000 10.0000
vt 0.6250 0.0000 10.0000
vt 0.7500 0.1667 10.0000
vt 0.5000 0.1667 10.0000
vt 0.7500 0.3333 10.0000
vt 0.6250 0.2820 10.0000
vt 0.5000 0.3333 10.0000
vt 0.8750 0.0000 10.0000
vt 1.0000 0.1667 10.0000
vt 1.0000 0.3333 10.0000
vt 0.8750 0.2820 10.0000
vt 0.1250 0.0000 10.0000
vt 0.2500 0.1667 10.0000
vt 0.0000 0.1667 10.0000
vt 0.2500 0.3333 10.0000
vt 0.1250 0.2820 10.0000
vt 0.0000 0.3333 10.0000
vt 0.3750 0.0000 10.0000
vt 0.3750 0.2820 10.0000
# 49 texture coords

g GeoSphere001
usemtl 01___Default__123
s 1
f 39/47/31 40/48/32 41/49/33 
f 40/48/32 42/50/34 43/51/35 
f 40/48/32 43/51/35 41/49/33 
f 41/49/33 43/51/35 44/52/36 
f 42/50/34 45/53/37 46/54/38 
f 42/50/34 46/54/38 43/51/35 
f 43/51/35 46/54/38 47/55/39 
f 43/51/35 47/55/39 44/52/36 
f 44/52/36 47/55/39 48/56/40 
f 39/57/31 41/49/33 49/58/41 
f 41/49/33 44/52/36 50/59/42 
f 41/49/33 50/59/42 49/58/41 
f 49/58/41 50/59/42 51/60/43 
f 44/52/36 48/56/40 52/61/44 
f 44/52/36 52/61/44 50/59/42 
f 50/59/42 52/61/44 53/62/45 
f 50/59/42 53/62/45 51/60/43 
f 51/60/43 53/62/45 54/63/46 
f 39/64/31 49/65/41 55/66/47 
f 49/65/41 51/67/43 56/68/48 
f 49/65/41 56/68/48 55/66/47 
f 55/66/47 56/68/48 57/69/49 
f 51/67/43 54/70/46 58/71/50 
f 51/67/43 58/71/50 56/68/48 
f 56/68/48 58/71/50 59/72/51 
f 56/68/48 59/72/51 57/69/49 
f 57/69/49 59/72/51 60/73/52 
f 39/74/31 55/66/47 40/48/32 
f 55/66/47 57/69/49 61/75/53 
f 55/66/47 61/75/53 40/48/32 
f 40/48/32 61/75/53 42/50/34 
f 57/69/49 60/73/52 62/76/54 
f 57/69/49 62/76/54 61/75/53 
f 61/75/53 62/76/54 63/77/55 
f 61/75/53 63/77/55 42/50/34 
f 42/50/34 63/77/55 45/53/37 
f 64/78/56 65/79/57 66/80/58 
f 65/79/57 67/81/59 68/82/60 
f 65/79/57 68/82/60 66/80/58 
f 66/80/58 68/82/60 69/83/61 
f 67/81/59 48/56/40 47/55/39 
f 67/81/59 47/55/39 68/82/60 
f 68/82/60 47/55/39 46/54/38 
f 68/82/60 46/54/38 69/83/61 
f 69/83/61 46/54/38 45/53/37 
f 64/84/56 70/85/62 65/79/57 
f 70/85/62 71/86/63 72/87/64 
f 70/85/62 72/87/64 65/79/57 
f 65/79/57 72/87/64 67/81/59 
f 71/86/63 54/63/46 53/62/45 
f 71/86/63 53/62/45 72/87/64 
f 72/87/64 53/62/45 52/61/44 
f 72/87/64 52/61/44 67/81/59 
f 67/81/59 52/61/44 48/56/40 
f 64/88/56 73/89/65 70/90/62 
f 73/89/65 74/91/66 75/92/67 
f 73/89/65 75/92/67 70/90/62 
f 70/90/62 75/92/67 71/93/63 
f 74/91/66 60/73/52 59/72/51 
f 74/91/66 59/72/51 75/92/67 
f 75/92/67 59/72/51 58/71/50 
f 75/92/67 58/71/50 71/93/63 
f 71/93/63 58/71/50 54/70/46 
f 64/94/56 66/80/58 73/89/65 
f 66/80/58 69/83/61 76/95/68 
f 66/80/58 76/95/68 73/89/65 
f 73/89/65 76/95/68 74/91/66 
f 69/83/61 45/53/37 63/77/55 
f 69/83/61 63/77/55 76/95/68 
f 76/95/68 63/77/55 62/76/54 
f 76/95/68 62/76/54 74/91/66 
f 74/91/66 62/76/54 60/73/52 
# 0 polygons - 72 triangles

#
# object Cylinder001
#

v  -13.9900 7.1041 0.0000
v  -14.7702 6.6322 -1.5793
v  -13.2098 7.5760 -1.5793
v  -12.4296 8.0479 0.0000
v  -14.7702 6.6322 1.5793
v  -15.5503 6.1603 0.0000
v  -13.2098 7.5760 1.5793
v  -15.9010 12.0254 -1.5793
v  -15.1208 12.4973 0.0000
v  -17.4614 11.0816 -1.5793
v  -18.2416 10.6097 0.0000
v  -17.4614 11.0816 1.5793
v  -15.9010 12.0254 1.5793
v  -16.6812 11.5535 0.0000
# 14 vertices

vn 0.5175 -0.8557 -0.0000
vn 0.8557 0.5175 0.0000
vn 0.4278 0.2588 -0.8660
vn 0.8557 0.5175 -0.0000
vn -0.4278 -0.2588 -0.8660
vn -0.8557 -0.5175 0.0000
vn -0.4278 -0.2588 0.8660
vn 0.4278 0.2588 0.8660
vn -0.5175 0.8557 -0.0000
# 9 vertex normals

vt 0.5000 0.0000 0.0000
vt 0.6667 0.0000 -0.0000
vt 0.9167 0.0000 1.0000
vt 0.7500 0.0000 1.0000
vt 0.4167 0.0000 1.0000
vt 0.2500 0.0000 1.0000
vt 0.0833 0.0000 1.0000
vt 0.5833 0.0000 1.0000
vt 0.9167 1.0000 1.0000
vt 0.7500 1.0000 1.0000
vt -0.0833 0.0000 1.0000
vt 0.0833 1.0000 1.0000
vt -0.0833 1.0000 1.0000
vt 0.2500 1.0000 1.0000
vt 0.4167 1.0000 1.0000
vt 0.5833 1.0000 1.0000
vt 0.5000 1.0000 0.0000
# 17 texture coords

g Cylinder001
usemtl 01___Default__123
s 1
f 77/96/69 78/97/69 79/98/69 80/99/69 
f 77/96/69 81/100/69 82/101/69 78/102/69 
f 77/96/69 80/99/69 83/103/69 81/100/69 
s 8
f 80/99/70 79/98/71 84/104/71 85/105/72 
f 79/106/71 78/102/73 86/107/73 84/108/71 
f 78/102/73 82/101/74 87/109/74 86/107/73 
f 82/101/74 81/100/75 88/110/75 87/109/74 
f 81/100/75 83/103/76 89/111/76 88/110/75 
f 83/103/76 80/99/70 85/105/72 89/111/76 
s 1
f 90/112/77 89/111/77 85/105/77 84/104/77 
f 90/112/77 84/108/77 86/107/77 87/109/77 
f 90/112/77 87/109/77 88/110/77 89/111/77 
# 12 polygons

#
# object Cylinder002
#

v  -15.2681 11.0163 0.1663
v  -15.6307 10.7840 -0.5796
v  -17.4778 12.6472 -0.4390
v  -17.2979 12.9469 0.1663
v  -16.3560 10.3194 -0.5796
v  -17.8376 12.0479 -0.4390
v  -16.7187 10.0872 0.1663
v  -18.0175 11.7482 0.1663
v  -16.3560 10.3194 0.9123
v  -17.8376 12.0479 0.7717
v  -15.6307 10.7840 0.9123
v  -17.4778 12.6472 0.7717
v  -20.0109 12.7997 -0.3869
v  -20.0541 13.1162 0.1663
v  -19.9246 12.1668 -0.3869
v  -19.8814 11.8503 0.1663
v  -19.9246 12.1668 0.7196
v  -20.0109 12.7997 0.7196
v  -21.9192 12.1135 -0.3869
v  -22.1283 12.3550 0.1663
v  -21.5010 11.6306 -0.3869
v  -21.2919 11.3891 0.1663
v  -21.5010 11.6306 0.7196
v  -21.9192 12.1135 0.7196
# 24 vertices

vn 0.6890 0.7248 -0.0002
vn 0.3590 0.4230 -0.8320
vn 0.2066 0.5457 -0.8121
vn 0.4085 0.9128 -0.0014
vn -0.3842 -0.2525 -0.8880
vn -0.2119 -0.3290 -0.9202
vn -0.7854 -0.6190 -0.0027
vn -0.4550 -0.8905 0.0009
vn -0.3800 -0.2587 0.8881
vn -0.2172 -0.3287 0.9191
vn 0.3623 0.4214 0.8314
vn 0.2090 0.5449 0.8120
vn -0.0829 0.5419 -0.8363
vn -0.1454 0.9894 -0.0008
vn 0.0490 -0.4512 -0.8911
vn 0.1289 -0.9917 0.0007
vn 0.0524 -0.4520 0.8905
vn -0.0885 0.5410 0.8364
vn -0.2069 0.5657 -0.7983
vn -0.3421 0.9397 0.0015
vn 0.1363 -0.4006 -0.9061
vn 0.3151 -0.9490 -0.0038
vn 0.1322 -0.4001 0.9069
vn -0.2045 0.5688 0.7967
vn 0.5393 -0.8421 -0.0000
vn -0.7559 -0.6547 0.0000
# 26 vertex normals

vt 0.7500 0.0000 1.0000
vt 0.9167 0.0000 1.0000
vt 0.9167 0.3333 1.0000
vt 0.7500 0.3333 1.0000
vt 1.0833 0.0000 1.0000
vt 1.0833 0.3333 1.0000
vt 0.0833 0.0000 1.0000
vt 0.2500 0.0000 1.0000
vt 0.2500 0.3333 1.0000
vt 0.0833 0.3333 1.0000
vt 0.4167 0.0000 1.0000
vt 0.4167 0.3333 1.0000
vt 0.5833 0.0000 1.0000
vt 0.5833 0.3333 1.0000
vt 0.9167 0.6667 1.0000
vt 0.7500 0.6667 1.0000
vt 1.0833 0.6667 1.0000
vt 0.2500 0.6667 1.0000
vt 0.0833 0.6667 1.0000
vt 0.4167 0.6667 1.0000
vt 0.5833 0.6667 1.0000
vt 0.9167 1.0000 1.0000
vt 0.7500 1.0000 1.0000
vt 1.0833 1.0000 1.0000
vt 0.2500 1.0000 1.0000
vt 0.0833 1.0000 1.0000
vt 0.4167 1.0000 1.0000
vt 0.5833 1.0000 1.0000
vt 0.9330 0.2500 -0.2500
vt 0.5000 0.0000 -0.2500
vt 0.0670 0.2500 -0.2500
vt 0.5000 1.0000 -0.2500
vt 0.0670 0.7500 -0.2500
vt 0.9330 0.7500 -0.2500
vt 0.0670 0.7500 0.2500
vt 0.0670 0.2500 0.2500
vt 0.5000 0.0000 0.2500
vt 0.9330 0.7500 0.2500
vt 0.9330 0.2500 0.2500
vt 0.5000 1.0000 0.2500
# 40 texture coords

g Cylinder002
usemtl 01___Default__13
s 8
f 91/113/78 92/114/79 93/115/80 94/116/81 
f 92/114/79 95/117/82 96/118/83 93/115/80 
f 95/119/82 97/120/84 98/121/85 96/122/83 
f 97/120/84 99/123/86 100/124/87 98/121/85 
f 99/123/86 101/125/88 102/126/89 100/124/87 
f 101/125/88 91/113/78 94/116/81 102/126/89 
f 94/116/81 93/115/80 103/127/90 104/128/91 
f 93/115/80 96/118/83 105/129/92 103/127/90 
f 96/122/83 98/121/85 106/130/93 105/131/92 
f 98/121/85 100/124/87 107/132/94 106/130/93 
f 100/124/87 102/126/89 108/133/95 107/132/94 
f 102/126/89 94/116/81 104/128/91 108/133/95 
f 104/128/91 103/127/90 109/134/96 110/135/97 
f 103/127/90 105/129/92 111/136/98 109/134/96 
f 105/131/92 106/130/93 112/137/99 111/138/98 
f 106/130/93 107/132/94 113/139/100 112/137/99 
f 107/132/94 108/133/95 114/140/101 113/139/100 
f 108/133/95 104/128/91 110/135/97 114/140/101 
s 1
f 99/141/102 97/142/102 95/143/102 91/144/102 
f 95/143/102 92/145/102 91/144/102 
f 101/146/102 99/141/102 91/144/102 
f 109/147/103 111/148/103 112/149/103 114/150/103 
f 112/149/103 113/151/103 114/150/103 
f 110/152/103 109/147/103 114/150/103 
# 20 polygons - 4 triangles

