# 3ds Max Wavefront OBJ Exporter v0.97b - (c)2007 guruware
# File Created: 03.06.2016 21:58:15

mtllib player_l_foot.mtl

#
# object Box001
#

v  -0.8909 0.0000 1.8941
v  -2.3259 0.0000 1.9898
v  -3.0473 0.4122 -0.1453
v  -1.5112 0.3884 -0.1656
v  0.4876 0.0000 1.8197
v  -0.0287 0.3351 -0.0432
v  0.9713 0.3351 3.6889
v  -0.4006 0.3884 3.9792
v  -1.7995 0.4122 4.1631
v  -1.4109 3.1075 1.9960
v  -3.1059 3.2978 2.1428
v  -2.3845 2.8856 4.2778
v  -0.7906 2.7190 4.0557
v  0.1664 2.9182 1.8869
v  1.0408 2.5671 3.8625
v  -0.0429 2.5671 -0.1817
v  -1.9012 2.7190 -0.0891
v  -3.6323 2.8856 -0.0306
v  -0.4105 1.5537 4.7083
v  -1.8840 1.6489 4.9386
v  1.0892 1.3404 4.3204
v  5.7079 1.2693 0.4266
v  5.7752 1.2693 1.9827
v  5.4320 0.5642 1.7165
v  5.3817 0.3173 0.5140
v  4.9882 1.2693 -0.9546
v  4.8240 0.5642 -0.5525
v  4.9380 2.4586 -0.8985
v  5.6386 2.4586 0.4460
v  5.7041 2.4586 1.9605
v  1.1563 1.2693 -0.9036
v  2.4613 1.2693 -1.2522
v  2.6214 0.3173 -0.6545
v  1.3191 0.3173 -0.2959
v  -0.2441 1.3404 -0.6556
v  1.2395 2.4586 -0.8678
v  2.4862 2.4586 -1.1929
v  -5.3325 0.8931 2.8331
v  -5.7221 1.0112 1.2590
v  -5.2001 0.4494 1.4310
v  -4.9533 0.2233 2.7114
v  -4.3144 1.0112 4.1892
v  -4.1743 0.4494 3.8138
v  -4.3476 1.7568 3.8477
v  -5.0833 1.7992 2.7368
v  -5.3735 1.7568 1.4650
v  4.4032 0.0000 0.7762
v  3.1019 0.0000 1.1388
v  3.9675 0.3173 -0.8497
v  4.8389 0.3173 2.4022
v  3.5824 0.3173 2.9321
v  1.8076 0.0000 1.5272
v  2.2961 0.3173 3.3504
v  -3.8155 0.0000 2.3463
v  -3.2052 0.3414 4.1823
v  -4.5559 0.3414 0.5357
v  4.1266 4.4369 0.8563
v  3.1652 4.4369 1.1037
v  3.5525 4.1996 2.5828
v  4.5194 4.1996 2.1834
v  4.9659 4.1996 0.6306
v  5.0626 4.0151 1.6355
v  4.5469 4.0151 -0.2890
v  3.8028 4.1996 -0.4909
v  2.7622 4.1996 -0.3667
v  2.3345 4.4369 1.2957
v  1.6289 4.1996 1.4775
v  2.0097 4.0151 2.6166
v  2.6704 4.1996 2.8239
v  1.8669 4.1996 -0.1746
v  1.3995 4.0151 0.3393
v  -4.3355 2.7312 2.4482
v  -4.9459 2.3898 0.6122
v  -3.5952 2.3898 4.2588
v  4.9841 1.2693 2.9442
v  3.7426 1.2693 3.5298
v  4.9340 2.4586 2.8965
v  3.7334 2.4586 3.4617
v  2.4590 1.2693 3.9581
v  2.5075 2.4586 3.8644
v  -3.1751 1.3656 4.8283
v  -4.9760 1.3656 -0.0338
v  -3.5478 1.6489 -0.8060
v  -1.8913 1.5537 -0.8182
v  3.8223 1.2693 -1.3917
v  3.8032 2.4586 -1.3240
v  5.4305 3.4878 0.5039
v  5.4907 3.4878 1.8941
v  4.7875 3.4878 -0.7301
v  3.7459 3.4878 -1.1207
v  2.5612 3.4878 -1.0150
v  1.4891 3.4878 -0.7603
v  0.8697 3.4878 0.0179
v  1.0429 3.4878 1.6943
v  1.7302 3.4878 3.2293
v  2.6530 3.4878 3.5832
v  3.7060 3.4878 3.2574
v  4.7839 3.4878 2.7532
# 98 vertices

vn -0.0013 -1.0000 -0.0026
vn 0.0004 -0.9999 -0.0101
vn -0.1035 -0.7942 -0.5988
vn 0.0033 -0.8039 -0.5947
vn -0.0018 -1.0000 0.0077
vn -0.0561 -0.8452 -0.5315
vn 0.1051 -0.8312 0.5460
vn 0.0732 -0.8208 0.5666
vn 0.0535 -0.8165 0.5748
vn 0.1093 0.9937 -0.0248
vn -0.1522 0.9876 0.0384
vn -0.0652 0.8050 0.5897
vn 0.1477 0.8285 0.5401
vn -0.2132 0.9758 0.0496
vn -0.0579 0.6542 0.7541
vn -0.2655 0.6892 -0.6741
vn 0.0710 0.8081 -0.5848
vn -0.2435 0.8072 -0.5377
vn 0.1740 -0.0130 0.9847
vn 0.0541 0.0166 0.9984
vn 0.2036 -0.1473 0.9679
vn 0.9582 -0.1452 -0.2464
vn 0.9281 -0.2020 0.3126
vn 0.7272 -0.6643 0.1727
vn 0.6810 -0.7158 -0.1544
vn 0.6299 -0.2099 -0.7477
vn 0.5176 -0.6308 -0.5781
vn 0.6566 0.1368 -0.7417
vn 0.9575 0.1319 -0.2566
vn 0.9398 0.1354 0.3139
vn -0.2595 -0.2302 -0.9379
vn -0.1800 -0.2510 -0.9511
vn -0.1159 -0.8271 -0.5499
vn -0.1289 -0.8425 -0.5230
vn -0.0597 -0.0853 -0.9946
vn -0.4000 0.1785 -0.8990
vn -0.1734 0.1138 -0.9783
vn -0.9049 -0.1521 0.3975
vn -0.9727 -0.1529 -0.1745
vn -0.5713 -0.8134 -0.1097
vn -0.5492 -0.8073 0.2159
vn -0.6045 -0.1911 0.7734
vn -0.4056 -0.7197 0.5635
vn -0.7195 0.4034 0.5654
vn -0.8044 0.4799 0.3501
vn -0.8642 0.5032 0.0036
vn 0.1603 -0.9867 -0.0282
vn 0.0031 -1.0000 0.0011
vn 0.1476 -0.7712 -0.6193
vn 0.4215 -0.7858 0.4525
vn 0.2018 -0.8271 0.5246
vn 0.0006 -1.0000 0.0035
vn 0.1502 -0.8341 0.5307
vn -0.0892 -0.9957 0.0250
vn -0.1101 -0.8024 0.5865
vn -0.3528 -0.8245 -0.4425
vn 0.1319 0.9902 -0.0463
vn 0.0021 1.0000 -0.0025
vn 0.1541 0.8829 0.4435
vn 0.3662 0.8457 0.3883
vn 0.5616 0.8094 -0.1720
vn 0.6187 0.7583 0.2054
vn 0.4572 0.7763 -0.4340
vn 0.1124 0.8561 -0.5045
vn -0.0739 0.8794 -0.4703
vn -0.1487 0.9880 0.0425
vn -0.5269 0.8368 0.1487
vn -0.4696 0.8137 0.3426
vn -0.0832 0.8835 0.4609
vn -0.3268 0.8609 -0.3900
vn -0.5940 0.7938 -0.1309
vn -0.5561 0.8071 0.1985
vn -0.7027 0.6405 -0.3098
vn -0.4652 0.6042 0.6469
vn 0.5870 -0.2184 0.7795
vn 0.3578 -0.2539 0.8986
vn 0.6102 0.1258 0.7822
vn 0.3666 0.1237 0.9221
vn 0.2708 -0.2591 0.9271
vn 0.1919 0.1835 0.9641
vn -0.2406 -0.0958 0.9659
vn -0.6789 -0.0666 -0.7312
vn -0.2457 0.0278 -0.9690
vn 0.0490 0.0304 -0.9983
vn 0.1241 -0.2205 -0.9675
vn 0.1309 0.1266 -0.9833
vn 0.8884 0.3877 -0.2458
vn 0.8489 0.4340 0.3016
vn 0.5969 0.4308 -0.6768
vn 0.1097 0.4314 -0.8954
vn -0.1437 0.4458 -0.8835
vn -0.4723 0.4652 -0.7487
vn -0.6723 0.6733 -0.3078
vn -0.6382 0.7552 0.1498
vn -0.4377 0.7351 0.5178
vn 0.0477 0.5266 0.8487
vn 0.3192 0.4549 0.8314
vn 0.5519 0.4319 0.7134
# 98 vertex normals

vt 0.6250 0.5000 0.0000
vt 0.7500 0.5000 0.0000
vt 0.7500 1.0000 0.0000
vt 0.6250 1.0000 0.0000
vt 0.5000 0.5000 0.0000
vt 0.5000 1.0000 0.0000
vt 0.5000 0.0000 0.0000
vt 0.6250 0.0000 0.0000
vt 0.7500 0.0000 0.0000
vt 0.3750 0.5000 0.0000
vt 0.2500 0.5000 0.0000
vt 0.2500 0.0000 0.0000
vt 0.3750 0.0000 0.0000
vt 0.4688 0.5000 0.0000
vt 0.3750 1.0000 0.0000
vt 0.2500 1.0000 0.0000
vt 0.0000 0.5000 0.0000
vt 0.0000 0.0000 0.0000
vt 1.0000 0.5000 0.0000
vt 1.0000 0.0000 0.0000
vt 1.0000 1.0000 0.0000
vt 0.0000 1.0000 0.0000
vt 0.1250 0.5000 0.0000
vt 0.1250 1.0000 0.0000
vt 0.1250 0.0000 0.0000
vt 0.8750 0.5000 0.0000
vt 0.8750 0.0000 0.0000
vt 0.8750 1.0000 0.0000
vt 0.7500 0.1250 0.0000
vt 0.8750 0.1250 0.0000
vt 0.9688 0.5000 0.0000
vt 0.9444 0.2222 0.0000
vt 0.9444 0.7778 0.0000
vt 0.8750 0.8750 0.0000
vt 0.7500 0.8750 0.0000
vt 0.5313 0.5000 0.0000
vt 0.5556 0.2222 0.0000
vt 0.6250 0.1250 0.0000
vt 0.6250 0.8750 0.0000
vt 0.5556 0.7778 0.0000
vt 0.9688 0.1250 0.0000
vt 0.9688 0.8750 0.0000
vt 0.5313 0.8750 0.0000
vt 0.5313 0.1250 0.0000
# 44 texture coords

g Box001
usemtl Material__26
s 1
f 1/1/1 2/2/2 3/3/3 4/4/4 
f 5/5/5 1/1/1 4/4/4 6/6/6 
f 1/1/1 5/5/5 7/7/7 8/8/8 
f 2/2/2 1/1/1 8/8/8 9/9/9 
usemtl Material__62
f 10/10/10 11/11/11 12/12/12 13/13/13 
f 14/14/14 10/10/10 13/13/13 15/7/15 
f 10/10/10 14/14/14 16/6/16 17/15/17 
f 11/11/11 10/10/10 17/15/17 18/16/18 
usemtl Material__26
f 19/10/19 20/11/20 9/12/9 8/13/8 
f 21/5/21 19/10/19 8/13/8 7/7/7 
usemtl Material__62
f 19/10/19 21/5/21 15/6/15 13/15/13 
f 20/11/20 19/10/19 13/15/13 12/16/12 
usemtl Material__26
f 22/5/22 23/17/23 24/18/24 25/7/25 
f 26/19/26 22/5/22 25/7/25 27/20/27 
usemtl Material__62
f 22/5/22 26/19/26 28/21/28 29/6/29 
f 23/17/23 22/5/22 29/6/29 30/22/30 
usemtl Material__26
f 31/10/31 32/11/32 33/12/33 34/13/34 
f 35/5/35 31/10/31 34/13/34 6/7/6 
usemtl Material__62
f 31/10/31 35/5/35 16/6/16 36/15/36 
f 32/11/32 31/10/31 36/15/36 37/16/37 
usemtl Material__26
f 38/5/38 39/17/39 40/18/40 41/7/41 
f 42/19/42 38/5/38 41/7/41 43/20/43 
usemtl Material__62
f 38/5/38 42/19/42 44/21/44 45/6/45 
f 39/17/39 38/5/38 45/6/45 46/22/46 
usemtl Material__26
f 47/23/47 48/11/48 33/16/33 49/24/49 
f 25/17/25 47/23/47 49/24/49 27/22/27 
f 47/23/47 25/17/25 24/18/24 50/25/50 
f 48/11/48 47/23/47 50/25/50 51/12/51 
f 52/10/52 5/5/5 6/6/6 34/15/34 
f 48/11/48 52/10/52 34/15/34 33/16/33 
f 52/10/52 48/11/48 51/12/51 53/13/53 
f 5/5/5 52/10/52 53/13/53 7/7/7 
f 54/26/54 2/2/2 9/9/9 55/27/55 
f 41/19/41 54/26/54 55/27/55 43/20/43 
f 54/26/54 41/19/41 40/21/40 56/28/56 
f 2/2/2 54/26/54 56/28/56 3/3/3 
f 57/26/57 58/2/58 59/29/59 60/30/60 
f 61/31/61 57/26/57 60/30/60 62/32/62 
f 57/26/57 61/31/61 63/33/63 64/34/64 
f 58/2/58 57/26/57 64/34/64 65/35/65 
f 66/1/66 67/36/67 68/37/68 69/38/69 
f 58/2/58 66/1/66 69/38/69 59/29/59 
f 66/1/66 58/2/58 65/35/65 70/39/70 
f 67/36/67 66/1/66 70/39/70 71/40/71 
usemtl Material__62
f 72/23/72 11/11/11 18/16/18 73/24/73 
f 45/17/45 72/23/72 73/24/73 46/22/46 
f 72/23/72 45/17/45 44/18/44 74/25/74 
f 11/11/11 72/23/72 74/25/74 12/12/12 
usemtl Material__26
f 75/26/75 76/2/76 51/9/51 50/27/50 
f 23/19/23 75/26/75 50/27/50 24/20/24 
usemtl Material__62
f 75/26/75 23/19/23 30/21/30 77/28/77 
f 76/2/76 75/26/75 77/28/77 78/3/78 
usemtl Material__26
f 79/1/79 21/5/21 7/7/7 53/8/53 
f 76/2/76 79/1/79 53/8/53 51/9/51 
usemtl Material__62
f 79/1/79 76/2/76 78/3/78 80/4/80 
f 21/5/21 79/1/79 80/4/80 15/6/15 
f 81/23/81 20/11/20 12/16/12 74/24/74 
f 42/17/42 81/23/81 74/24/74 44/22/44 
usemtl Material__26
f 81/23/81 42/17/42 43/18/43 55/25/55 
f 20/11/20 81/23/81 55/25/55 9/12/9 
f 82/26/82 83/2/83 3/9/3 56/27/56 
f 39/19/39 82/26/82 56/27/56 40/20/40 
usemtl Material__62
f 82/26/82 39/19/39 46/21/46 73/28/73 
f 83/2/83 82/26/82 73/28/73 18/3/18 
usemtl Material__26
f 84/1/84 35/5/35 6/7/6 4/8/4 
f 83/2/83 84/1/84 4/8/4 3/9/3 
usemtl Material__62
f 84/1/84 83/2/83 18/3/18 17/4/17 
f 35/5/35 84/1/84 17/4/17 16/6/16 
f 85/23/85 32/11/32 37/16/37 86/24/86 
f 26/17/26 85/23/85 86/24/86 28/22/28 
usemtl Material__26
f 85/23/85 26/17/26 27/18/27 49/25/49 
f 32/11/32 85/23/85 49/25/49 33/12/33 
usemtl Material__62
f 87/19/87 88/41/88 30/20/30 29/19/29 
f 89/42/89 87/19/87 29/19/29 28/21/28 
f 87/19/87 89/42/89 63/33/63 61/31/61 
f 88/41/88 87/19/87 61/31/61 62/32/62 
f 90/28/90 89/42/89 28/21/28 86/28/86 
f 91/3/91 90/28/90 86/28/86 37/3/37 
f 90/28/90 91/3/91 65/35/65 64/34/64 
f 89/42/89 90/28/90 64/34/64 63/33/63 
f 92/4/92 91/3/91 37/3/37 36/4/36 
f 93/43/93 92/4/92 36/4/36 16/6/16 
f 92/4/92 93/43/93 71/40/71 70/39/70 
f 91/3/91 92/4/92 70/39/70 65/35/65 
f 94/5/94 93/43/93 16/6/16 14/14/14 
f 95/44/95 94/5/94 14/14/14 15/7/15 
f 94/5/94 95/44/95 68/37/68 67/36/67 
f 93/43/93 94/5/94 67/36/67 71/40/71 
f 96/8/96 95/44/95 15/7/15 80/8/80 
f 97/9/97 96/8/96 80/8/80 78/9/78 
f 96/8/96 97/9/97 59/29/59 69/38/69 
f 95/44/95 96/8/96 69/38/69 68/37/68 
f 98/27/98 97/9/97 78/9/78 77/27/77 
f 88/41/88 98/27/98 77/27/77 30/20/30 
f 98/27/98 88/41/88 62/32/62 60/30/60 
f 97/9/97 98/27/98 60/30/60 59/29/59 
# 96 polygons

