# 3ds Max Wavefront OBJ Exporter v0.97b - (c)2007 guruware
# File Created: 03.06.2016 23:37:24

mtllib player_r_hand.mtl

#
# object Box003
#

v  0.8594 -0.9190 2.6131
v  0.0967 -1.5950 2.7377
v  0.1257 -1.9438 2.1545
v  1.1190 -1.0653 2.1545
v  -0.7113 -1.7286 2.6131
v  -0.9257 -2.1248 2.1545
v  -0.7113 -1.7286 1.6958
v  0.0967 -1.5950 1.5712
v  0.8594 -0.9190 1.6958
v  0.8594 -1.1953 0.4587
v  0.0967 -1.9059 0.5833
v  0.1257 -2.2991 -0.0000
v  1.1190 -1.3762 -0.0000
v  -0.7113 -2.0049 0.4587
v  -0.9257 -2.4356 0.0000
v  -0.7113 -2.0049 -0.4587
v  0.0967 -1.9059 -0.5833
v  0.8594 -1.1953 -0.4587
v  0.8594 -0.5641 -1.6958
v  0.0967 -1.1958 -1.5712
v  0.1257 -1.4875 -2.1545
v  1.1190 -0.6661 -2.1545
v  -0.7113 -1.3737 -1.6958
v  -0.9257 -1.7255 -2.1545
v  -0.7113 -1.3737 -2.6131
v  0.0967 -1.1958 -2.7377
v  0.8594 -0.5641 -2.6131
v  -1.2867 5.5594 1.2039
v  -1.2352 5.7809 0.7231
v  -2.0760 5.4818 0.5718
v  -1.9874 5.3438 1.1529
v  -1.2352 5.7809 0.1839
v  -2.0760 5.4818 0.1049
v  -2.6565 4.8081 0.1839
v  -2.6921 4.8503 0.7231
v  -2.5292 4.8884 1.2039
v  -1.2352 5.7809 -0.3379
v  -2.0760 5.4818 -0.3517
v  -1.2352 5.7809 -0.8098
v  -2.0760 5.4818 -0.7652
v  -2.6446 4.7940 -0.8098
v  -2.6446 4.7940 -0.3379
v  -1.2352 5.7809 -1.1994
v  -2.0760 5.4818 -1.1032
v  -1.2656 5.5344 -1.5052
v  -1.9399 5.2875 -1.4727
v  -2.4025 4.7383 -1.5052
v  -2.6446 4.7940 -1.1994
v  1.0327 1.5333 3.1281
v  1.4165 1.7300 2.1079
v  1.0235 3.3217 1.9682
v  0.7414 3.1859 2.9869
v  1.3187 1.4357 1.0584
v  1.0235 3.3217 0.9073
v  0.3977 4.6830 0.7008
v  0.3977 4.6830 1.6772
v  0.0091 4.5914 2.6942
v  1.4165 1.6856 -0.0302
v  1.0235 3.3217 -0.1208
v  1.3187 1.4610 -1.0797
v  1.0235 3.3217 -1.0998
v  0.3977 4.6830 -1.0721
v  0.3977 4.6830 -0.2251
v  1.4165 1.7870 -2.1193
v  1.0235 3.3217 -2.0136
v  1.0154 1.5752 -2.8567
v  0.6309 3.0879 -2.6744
v  0.0450 4.4463 -2.3262
v  0.3977 4.6830 -1.8117
v  -0.1877 0.9396 -3.1025
v  -0.5470 2.3866 -2.8947
v  -1.3909 0.3040 -2.8567
v  -1.7248 1.6852 -2.6744
v  -2.0715 3.0260 -2.3262
v  -1.0133 3.7362 -2.4977
v  -1.7919 0.0921 -2.1193
v  -2.1174 1.4515 -2.0136
v  -1.5783 -0.0351 -1.0797
v  -2.1174 1.4515 -1.0998
v  -2.4243 2.7893 -1.0721
v  -2.4243 2.7893 -1.8117
v  -1.7919 -0.0093 -0.0302
v  -2.1174 1.4515 -0.1208
v  -1.5836 -0.0542 1.0584
v  -2.1649 1.5078 0.9073
v  -2.4955 2.8738 0.7008
v  -2.4243 2.7893 -0.2251
v  -1.8394 0.0914 2.1079
v  -2.3074 1.6767 1.9682
v  -1.6343 0.2606 2.9657
v  -2.4782 1.8755 2.7431
v  -2.7757 3.5936 2.6224
v  -2.7092 3.1271 1.6772
v  -2.6560 -0.2331 1.9300
v  -2.6699 -0.7738 1.9488
v  -3.0353 -0.4276 2.0710
v  -2.8640 0.1448 1.8757
v  -2.8120 -1.0693 2.5122
v  -3.1746 -0.9044 2.7304
v  -3.4036 -0.4265 3.0880
v  -3.3687 0.0142 2.6573
v  -3.1559 0.3583 2.4038
v  -0.2668 0.5066 3.2383
v  0.0095 -0.5488 3.0520
v  1.1265 0.0229 2.8276
v  -1.1075 -1.1205 2.8276
v  -1.4798 -1.3111 2.1545
v  -1.1075 -1.1205 1.4814
v  -0.0486 0.1043 1.0772
v  0.0095 -0.5488 1.2570
v  1.1265 0.0229 1.4814
v  1.4988 0.2135 2.1545
v  0.0095 -0.7264 0.8975
v  1.1265 -0.1547 0.6731
v  -1.1075 -1.2981 0.6731
v  -1.4798 -1.4887 0.0000
v  -1.1075 -1.2981 -0.6731
v  -0.0486 0.1613 -1.0772
v  0.0095 -0.7264 -0.8975
v  1.1265 -0.1547 -0.6731
v  1.4988 0.0358 -0.0000
v  0.0095 -0.3207 -1.2570
v  1.1265 0.2510 -1.4814
v  -1.1075 -0.8923 -1.4814
v  -1.4798 -1.0829 -2.1545
v  -1.1075 -0.8923 -2.8276
v  0.0095 -0.3207 -3.0520
v  1.1265 0.2510 -2.8276
v  1.4988 0.4416 -2.1545
v  -0.8632 0.8828 3.4376
v  -1.8722 0.9559 2.9212
v  -0.1015 1.5683 3.9357
v  -1.0956 1.0201 4.4058
v  -1.5136 0.7005 3.5685
v  -2.1444 1.0118 2.7914
v  -0.1050 2.7787 3.8886
v  -0.7348 3.7998 3.5977
v  -1.6241 2.9242 4.1762
v  -1.1666 1.9754 4.4917
v  -1.5770 4.4005 2.7585
v  -1.8522 3.9176 3.3642
v  -2.7223 3.2767 3.1491
v  -2.8935 2.8931 3.3821
v  -2.3652 3.2241 3.8093
v  -2.6104 2.0217 2.9132
v  -2.7121 1.9491 2.8861
v  -1.9515 0.0805 3.5492
v  -2.3039 0.6414 2.9300
v  -1.8449 0.0152 4.3146
v  -2.3548 -0.9293 3.8038
v  -2.2401 -0.5683 3.2464
v  -2.4090 0.1700 2.9027
v  -2.0948 0.6516 4.6144
v  -2.5188 1.4981 4.5279
v  -3.2198 0.1883 4.4746
v  -2.7806 -0.5561 4.2943
v  -2.9344 2.0628 4.1343
v  -3.1043 2.1320 3.5945
v  -3.2458 1.3156 3.5140
v  -3.3746 0.9405 4.1012
v  -2.7911 1.4917 3.0691
v  -2.8341 0.9283 3.0532
v  -2.4422 -0.8369 2.5267
v  -2.5184 -0.0770 2.2749
v  -2.6306 -1.2965 3.0148
v  -3.1151 -1.0110 3.5689
v  -3.5277 -0.3382 3.8381
v  -3.5006 0.3640 3.4714
v  -3.2089 0.7659 2.8685
v  -2.8277 0.5381 2.4292
v  -0.3829 5.5087 1.1769
v  -0.7176 5.3639 1.7579
v  -0.3829 5.5087 0.4211
v  -0.3829 5.5087 -0.2966
v  -0.3829 5.5087 -0.9438
v  -0.3829 5.5087 -1.4880
v  -0.6701 5.3076 -1.8575
v  -1.5316 4.7044 -1.9806
v  -2.3932 4.1011 -1.8575
v  -2.6804 3.9000 -1.4880
v  -2.6804 3.9000 -0.9438
v  -2.6804 3.9000 -0.2966
v  -2.7278 3.9563 0.4211
v  -2.8703 4.1252 1.1769
v  -2.6781 4.4389 1.7579
v  -1.7216 4.9296 1.9516
# 186 vertices

vn 0.6196 -0.4162 0.6655
vn 0.2789 -0.5813 0.7644
vn 0.4006 -0.9162 -0.0086
vn 0.8421 -0.5388 0.0219
vn -0.1764 -0.5806 0.7948
vn -0.3983 -0.9168 -0.0290
vn -0.2215 -0.6181 -0.7542
vn 0.2676 -0.5921 -0.7601
vn 0.5752 -0.4040 -0.7113
vn 0.6178 -0.3822 0.6872
vn 0.2682 -0.5562 0.7866
vn 0.3872 -0.9220 -0.0097
vn 0.8512 -0.5244 0.0211
vn -0.2178 -0.5357 0.8159
vn -0.4361 -0.8995 -0.0273
vn -0.2633 -0.5717 -0.7771
vn 0.2525 -0.5686 -0.7829
vn 0.5729 -0.3700 -0.7313
vn 0.6210 -0.4669 0.6296
vn 0.2951 -0.6176 0.7290
vn 0.4169 -0.9089 -0.0070
vn 0.8275 -0.5609 0.0234
vn -0.1113 -0.6440 0.7569
vn -0.3375 -0.9408 -0.0320
vn -0.1553 -0.6828 -0.7139
vn 0.2895 -0.6259 -0.7242
vn 0.5776 -0.4553 -0.6776
vn -0.2243 0.8733 0.4324
vn -0.0648 0.9842 0.1646
vn -0.5407 0.8328 0.1192
vn -0.4485 0.8124 0.3726
vn -0.0163 0.9999 0.0000
vn -0.5684 0.8228 -0.0032
vn -0.9243 0.3772 -0.0576
vn -0.8832 0.4676 0.0366
vn -0.7229 0.6342 0.2743
vn -0.0163 0.9999 -0.0000
vn -0.5736 0.8192 0.0000
vn -0.5736 0.8192 -0.0000
vn -0.9340 0.3573 0.0000
vn -0.9336 0.3582 -0.0126
vn -0.0574 0.9569 -0.2847
vn -0.5571 0.7901 -0.2557
vn -0.1723 0.7185 -0.6739
vn -0.4317 0.6011 -0.6725
vn -0.5812 0.4425 -0.6829
vn -0.8772 0.3929 -0.2761
vn 0.7562 -0.0255 0.6538
vn 0.9785 0.1381 0.1534
vn 0.9270 0.3391 0.1601
vn 0.7732 0.3419 0.5341
vn 0.9984 -0.0323 -0.0456
vn 0.9537 0.3004 -0.0118
vn 0.8287 0.5598 -0.0000
vn 0.7865 0.5941 0.1686
vn 0.4330 0.6840 0.5870
vn 0.9929 0.1131 0.0358
vn 0.9489 0.3154 0.0114
vn 0.9976 -0.0426 -0.0542
vn 0.9533 0.3017 -0.0112
vn 0.9729 0.1462 -0.1792
vn 0.8937 0.3415 -0.2911
vn 0.5548 0.1376 -0.8205
vn 0.4499 0.3034 -0.8400
vn 0.2865 0.4687 -0.8356
vn 0.7344 0.5863 -0.3418
vn -0.0156 0.0433 -0.9989
vn -0.0928 0.1766 -0.9799
vn -0.5564 -0.0994 -0.8250
vn -0.5769 0.0054 -0.8168
vn -0.5831 0.1055 -0.8055
vn -0.1786 0.2911 -0.9399
vn -0.9467 -0.2476 -0.2060
vn -0.9414 -0.1840 -0.2828
vn -0.8766 -0.4811 0.0051
vn -0.9638 -0.2663 0.0156
vn -0.9746 -0.2241 0.0000
vn -0.9400 -0.1404 -0.3110
vn -0.9618 -0.2689 -0.0520
vn -0.9688 -0.2452 -0.0370
vn -0.8800 -0.4726 0.0470
vn -0.9577 -0.2849 -0.0402
vn -0.9667 -0.2366 -0.0978
vn -0.9740 -0.2251 -0.0263
vn -0.9442 -0.3293 -0.0007
vn -0.9543 -0.2792 -0.1064
vn -0.6226 -0.2983 0.7234
vn -0.9186 -0.3612 -0.1604
vn -0.9153 0.3133 0.2530
vn -0.9822 -0.1852 -0.0312
vn 0.5086 0.0402 -0.8601
vn 0.2257 -0.5100 -0.8300
vn -0.7015 -0.2129 -0.6802
vn 0.0013 0.4133 -0.9106
vn -0.1243 -0.8828 -0.4531
vn -0.7809 -0.5701 -0.2553
vn -0.9504 -0.2657 -0.1618
vn -0.9394 0.0469 -0.3397
vn -0.7861 0.3679 -0.4967
vn 0.0766 -0.3404 0.9371
vn 0.1087 -0.2280 0.9676
vn 0.6707 -0.1988 0.7145
vn -0.4348 -0.3727 0.8198
vn -0.8877 -0.4592 -0.0338
vn -0.4692 -0.4449 -0.7628
vn 0.5284 -0.8479 0.0435
vn 0.1669 -0.2803 -0.9453
vn 0.6413 -0.2976 -0.7073
vn 0.9863 -0.1481 0.0728
vn 0.1031 -0.2377 0.9659
vn 0.6844 -0.2336 0.6907
vn -0.4117 -0.4051 0.8163
vn -0.9038 -0.4250 -0.0499
vn -0.4950 -0.3876 -0.7777
vn 0.5369 -0.8403 -0.0752
vn 0.1476 -0.2394 -0.9596
vn 0.6321 -0.2587 -0.7305
vn 0.9882 -0.1389 0.0646
vn 0.1565 -0.3343 0.9294
vn 0.7014 -0.3030 0.6452
vn -0.3267 -0.5355 0.7788
vn -0.8477 -0.5259 -0.0700
vn -0.4690 -0.3687 -0.8025
vn 0.1010 -0.1837 -0.9778
vn 0.6261 -0.1469 -0.7657
vn 0.9939 -0.1106 0.0011
vn 0.1112 -0.7893 0.6038
vn -0.3477 -0.8100 0.4723
vn 0.5059 -0.2866 0.8136
vn 0.5258 -0.4703 0.7088
vn 0.5401 -0.7796 -0.3169
vn 0.1663 -0.1352 -0.9768
vn 0.4716 0.2865 0.8340
vn 0.1701 0.5949 0.7856
vn -0.0497 0.4530 0.8901
vn 0.2130 0.1554 0.9646
vn -0.2962 0.7676 0.5684
vn -0.3493 0.7369 0.5788
vn -0.8633 0.4232 0.2751
vn -0.9341 0.3511 0.0655
vn -0.4813 0.5923 0.6462
vn -0.4200 -0.0197 -0.9073
vn -0.5051 0.0770 -0.8596
vn 0.8410 -0.3867 -0.3783
vn 0.2035 -0.2036 -0.9577
vn 0.6554 -0.5515 0.5160
vn 0.5365 -0.7653 0.3557
vn 0.9387 -0.2660 -0.2193
vn 0.8142 0.1380 -0.5639
vn 0.0886 -0.1355 0.9868
vn -0.2638 0.2060 0.9423
vn -0.5806 -0.1113 0.8065
vn -0.1162 -0.5797 0.8065
vn -0.6813 0.3694 0.6320
vn -0.9662 0.2448 -0.0813
vn -0.8983 0.2887 -0.3312
vn -0.8970 0.2219 0.3823
vn -0.7183 -0.0346 -0.6949
vn -0.0293 0.5112 -0.8590
vn 0.8591 -0.4009 -0.3181
vn 0.8925 0.2568 -0.3709
vn 0.2375 -0.9683 -0.0771
vn -0.5382 -0.7871 0.3013
vn -0.9073 -0.2935 0.3011
vn -0.9842 0.1684 -0.0541
vn -0.6948 0.5352 -0.4804
vn 0.3951 0.7513 -0.5286
vn 0.4581 0.8717 0.1744
vn 0.0543 0.8645 0.4996
vn 0.5323 0.8466 0.0000
vn 0.5323 0.8466 -0.0000
vn 0.4351 0.8428 -0.3168
vn 0.0501 0.6563 -0.7528
vn -0.2840 0.4145 -0.8646
vn -0.6205 0.2430 -0.7456
vn -0.9554 -0.0110 -0.2952
vn -0.9956 -0.0932 0.0000
vn -0.9953 -0.0937 -0.0254
vn -0.9910 -0.0847 -0.1034
vn -0.9974 0.0594 0.0403
vn -0.8000 0.4733 0.3688
vn -0.3620 0.7530 0.5495
# 182 vertex normals

vt 0.9259 0.2222 0.0000
vt 0.9583 0.5000 0.0000
vt 0.8333 0.5000 0.0000
vt 0.8333 0.1250 0.0000
vt 0.9259 0.7778 0.0000
vt 0.8333 0.8750 0.0000
vt 0.7407 0.7778 0.0000
vt 0.7083 0.5000 0.0000
vt 0.7407 0.2222 0.0000
vt 0.5926 0.2222 0.0000
vt 0.6250 0.5000 0.0000
vt 0.5000 0.5000 0.0000
vt 0.5000 0.1250 0.0000
vt 0.5926 0.7778 0.0000
vt 0.5000 0.8750 0.0000
vt 0.4074 0.7778 0.0000
vt 0.3750 0.5000 0.0000
vt 0.4074 0.2222 0.0000
vt 0.2593 0.2222 0.0000
vt 0.2917 0.5000 0.0000
vt 0.1667 0.5000 0.0000
vt 0.1667 0.1250 0.0000
vt 0.2593 0.7778 0.0000
vt 0.1667 0.8750 0.0000
vt 0.0741 0.7778 0.0000
vt 0.0417 0.5000 0.0000
vt 0.0741 0.2222 0.0000
vt 0.3333 0.1250 0.0000
vt 0.3333 0.5000 0.0000
vt 0.3333 0.8750 0.0000
vt 0.6667 0.1250 0.0000
vt 0.6667 0.5000 0.0000
vt 0.6667 0.8750 0.0000
vt 0.0000 0.0000 0.0000
vt 0.1667 0.0000 0.0000
vt 0.0000 0.5000 0.0000
vt 0.3333 0.0000 0.0000
vt 0.3333 1.0000 0.0000
vt 0.1667 1.0000 0.0000
vt 0.0000 1.0000 0.0000
vt 0.5000 0.0000 0.0000
vt 0.6667 0.0000 0.0000
vt 0.6667 1.0000 0.0000
vt 0.5000 1.0000 0.0000
vt 0.8333 0.0000 0.0000
vt 1.0000 0.0000 0.0000
vt 1.0000 0.5000 0.0000
vt 1.0000 1.0000 0.0000
vt 0.8333 1.0000 0.0000
vt 0.2222 0.2222 0.0000
vt 0.1250 0.5000 0.0000
vt 0.7778 0.2222 0.0000
vt 0.8750 0.5000 0.0000
vt 0.7778 0.7778 0.0000
vt 0.2222 0.7778 0.0000
vt 0.9583 0.1250 0.0000
vt 0.9583 0.8750 0.0000
vt 0.7083 0.8750 0.0000
vt 0.7083 0.1250 0.0000
vt 0.6250 0.1250 0.0000
vt 0.6250 0.8750 0.0000
vt 0.3750 0.8750 0.0000
vt 0.3750 0.1250 0.0000
vt 0.2917 0.1250 0.0000
vt 0.2917 0.8750 0.0000
vt -0.0000 1.0000 0.0000
vt 0.0417 0.8750 0.0000
vt -0.0000 0.5000 0.0000
vt -0.0000 0.0000 0.0000
vt 0.0417 0.1250 0.0000
vt 0.1250 0.1250 0.0000
vt 0.8750 0.1250 0.0000
vt 0.8750 0.8750 0.0000
vt 0.1250 0.8750 0.0000
# 74 texture coords

g Box003
usemtl Material__26
s 1
f 1/1/1 2/2/2 3/3/3 4/4/4 
f 2/2/2 5/5/5 6/6/6 3/3/3 
f 7/7/7 8/8/8 3/3/3 6/6/6 
f 8/8/8 9/9/9 4/4/4 3/3/3 
f 10/10/10 11/11/11 12/12/12 13/13/13 
f 11/11/11 14/14/14 15/15/15 12/12/12 
f 16/16/16 17/17/17 12/12/12 15/15/15 
f 17/17/17 18/18/18 13/13/13 12/12/12 
f 19/19/19 20/20/20 21/21/21 22/22/22 
f 20/20/20 23/23/23 24/24/24 21/21/21 
f 25/25/25 26/26/26 21/21/21 24/24/24 
f 26/26/26 27/27/27 22/22/22 21/21/21 
f 28/27/28 29/22/29 30/21/30 31/26/31 
f 29/22/29 32/28/32 33/29/33 30/21/30 
f 34/30/34 35/24/35 30/21/30 33/29/33 
f 35/24/35 36/25/36 31/26/31 30/21/30 
f 32/28/32 37/13/37 38/12/38 33/29/33 
f 37/13/37 39/31/32 40/32/39 38/12/38 
f 41/33/40 42/15/41 38/12/38 40/32/39 
f 42/15/41 34/30/34 33/29/33 38/12/38 
f 39/31/32 43/4/42 44/3/43 40/32/39 
f 43/4/42 45/1/44 46/2/45 44/3/43 
f 47/5/46 48/6/47 44/3/43 46/2/45 
f 48/6/47 41/33/40 40/32/39 44/3/43 
f 49/34/48 50/35/49 51/21/50 52/36/51 
f 50/35/49 53/37/52 54/29/53 51/21/50 
f 55/38/54 56/39/55 51/21/50 54/29/53 
f 56/39/55 57/40/56 52/36/51 51/21/50 
f 53/37/52 58/41/57 59/12/58 54/29/53 
f 58/41/57 60/42/59 61/32/60 59/12/58 
f 62/43/54 63/44/54 59/12/58 61/32/60 
f 63/44/54 55/38/54 54/29/53 59/12/58 
f 60/42/59 64/45/61 65/3/62 61/32/60 
f 64/45/61 66/46/63 67/47/64 65/3/62 
f 68/48/65 69/49/66 65/3/62 67/47/64 
f 69/49/66 62/43/54 61/32/60 65/3/62 
f 66/34/63 70/41/67 71/12/68 67/36/64 
f 70/41/67 72/46/69 73/47/70 71/12/68 
f 74/48/71 75/44/72 71/12/68 73/47/70 
f 75/44/72 68/40/65 67/36/64 71/12/68 
f 72/34/69 76/35/73 77/21/74 73/36/70 
f 76/35/73 78/37/75 79/29/76 77/21/74 
f 80/38/77 81/39/78 77/21/74 79/29/76 
f 81/39/78 74/40/71 73/36/70 77/21/74 
f 78/37/75 82/41/79 83/12/80 79/29/76 
f 82/41/79 84/42/81 85/32/82 83/12/80 
f 86/43/83 87/44/84 83/12/80 85/32/82 
f 87/44/84 80/38/77 79/29/76 83/12/80 
f 84/42/81 88/45/85 89/3/86 85/32/82 
f 88/45/85 90/46/87 91/47/88 89/3/86 
f 92/48/89 93/49/90 89/3/86 91/47/88 
f 93/49/90 86/43/83 85/32/82 89/3/86 
f 94/50/91 95/13/92 96/12/93 97/51/94 
f 95/13/92 98/52/95 99/53/96 96/12/93 
f 100/54/97 101/15/98 96/12/93 99/53/96 
f 101/15/98 102/55/99 97/51/94 96/12/93 
f 49/46/48 103/47/100 104/47/101 105/56/102 
f 103/47/100 90/48/87 106/57/103 104/47/101 
f 5/5/5 2/2/2 104/47/101 106/57/103 
f 2/2/2 1/1/1 105/56/102 104/47/101 
f 90/48/87 88/49/85 107/49/104 106/57/103 
f 88/49/85 84/43/81 108/58/105 107/49/104 
f 7/7/7 6/6/6 107/49/104 108/58/105 
f 6/6/6 5/5/5 106/57/103 107/49/104 
f 84/43/81 109/32/106 110/32/107 108/58/105 
f 109/32/106 53/42/52 111/59/108 110/32/107 
f 9/9/9 8/8/8 110/32/107 111/59/108 
f 8/8/8 7/7/7 108/58/105 110/32/107 
f 53/42/52 50/45/49 112/45/109 111/59/108 
f 50/45/49 49/46/48 105/56/102 112/45/109 
f 1/1/1 4/4/4 112/45/109 105/56/102 
f 4/4/4 9/9/9 111/59/108 112/45/109 
f 53/42/52 109/32/106 113/32/110 114/60/111 
f 109/32/106 84/43/81 115/61/112 113/32/110 
f 14/14/14 11/11/11 113/32/110 115/61/112 
f 11/11/11 10/10/10 114/60/111 113/32/110 
f 84/43/81 82/44/79 116/44/113 115/61/112 
f 82/44/79 78/38/75 117/62/114 116/44/113 
f 16/16/16 15/15/15 116/44/113 117/62/114 
f 15/15/15 14/14/14 115/61/112 116/44/113 
f 78/38/75 118/29/115 119/29/116 117/62/114 
f 118/29/115 60/37/59 120/63/117 119/29/116 
f 18/18/18 17/17/17 119/29/116 120/63/117 
f 17/17/17 16/16/16 117/62/114 119/29/116 
f 60/37/59 58/41/57 121/41/118 120/63/117 
f 58/41/57 53/42/52 114/60/111 121/41/118 
f 10/10/10 13/13/13 121/41/118 114/60/111 
f 13/13/13 18/18/18 120/63/117 121/41/118 
f 60/37/59 118/29/115 122/29/119 123/64/120 
f 118/29/115 78/38/75 124/65/121 122/29/119 
f 23/23/23 20/20/20 122/29/119 124/65/121 
f 20/20/20 19/19/19 123/64/120 122/29/119 
f 78/38/75 76/39/73 125/39/122 124/65/121 
f 76/39/73 72/66/69 126/67/123 125/39/122 
f 25/25/25 24/24/24 125/39/122 126/67/123 
f 24/24/24 23/23/23 124/65/121 125/39/122 
f 72/66/69 70/68/67 127/68/124 126/67/123 
f 70/68/67 66/69/63 128/70/125 127/68/124 
f 27/27/27 26/26/26 127/68/124 128/70/125 
f 26/26/26 25/25/25 126/67/123 127/68/124 
f 66/69/63 64/35/61 129/35/126 128/70/125 
f 64/35/61 60/37/59 123/64/120 129/35/126 
f 19/19/19 22/22/22 129/35/126 123/64/120 
f 22/22/22 27/27/27 128/70/125 129/35/126 
f 90/34/87 103/41/100 130/41/127 131/71/128 
f 103/41/100 49/46/48 132/72/129 130/41/127 
f 133/72/130 134/41/131 130/41/127 132/72/129 
f 134/41/131 135/71/132 131/71/128 130/41/127 
f 49/46/48 52/47/51 136/47/133 132/72/129 
f 52/47/51 57/48/56 137/73/134 136/47/133 
f 138/73/135 139/47/136 136/47/133 137/73/134 
f 139/47/136 133/72/130 132/72/129 136/47/133 
f 57/48/56 140/44/137 141/44/138 137/73/134 
f 140/44/137 92/40/89 142/74/139 141/44/138 
f 143/74/140 144/44/141 141/44/138 142/74/139 
f 144/44/141 138/73/135 137/73/134 141/44/138 
f 92/40/89 91/36/88 145/36/142 142/74/139 
f 91/36/88 90/34/87 131/71/128 145/36/142 
f 135/71/132 146/36/143 145/36/142 131/71/128 
f 146/36/143 143/74/140 142/74/139 145/36/142 
f 135/71/132 134/41/131 147/41/144 148/71/145 
f 134/41/131 133/72/130 149/72/146 147/41/144 
f 150/72/147 151/41/148 147/41/144 149/72/146 
f 151/41/148 152/71/149 148/71/145 147/41/144 
f 133/72/130 139/47/136 153/47/150 149/72/146 
f 139/47/136 138/73/135 154/73/151 153/47/150 
f 155/73/152 156/47/153 153/47/150 154/73/151 
f 156/47/153 150/72/147 149/72/146 153/47/150 
f 138/73/135 144/44/141 157/44/154 154/73/151 
f 144/44/141 143/74/140 158/74/155 157/44/154 
f 159/74/156 160/44/157 157/44/154 158/74/155 
f 160/44/157 155/73/152 154/73/151 157/44/154 
f 143/74/140 146/36/143 161/36/158 158/74/155 
f 146/36/143 135/71/132 148/71/145 161/36/158 
f 152/71/149 162/36/159 161/36/158 148/71/145 
f 162/36/159 159/74/156 158/74/155 161/36/158 
f 152/71/149 151/41/148 163/41/160 164/71/161 
f 151/41/148 150/72/147 165/72/162 163/41/160 
f 98/52/95 95/13/92 163/41/160 165/72/162 
f 95/13/92 94/50/91 164/71/161 163/41/160 
f 150/72/147 156/47/153 166/47/163 165/72/162 
f 156/47/153 155/73/152 167/73/164 166/47/163 
f 100/54/97 99/53/96 166/47/163 167/73/164 
f 99/53/96 98/52/95 165/72/162 166/47/163 
f 155/73/152 160/44/157 168/44/165 167/73/164 
f 160/44/157 159/74/156 169/74/166 168/44/165 
f 102/55/99 101/15/98 168/44/165 169/74/166 
f 101/15/98 100/54/97 167/73/164 168/44/165 
f 159/74/156 162/36/159 170/36/167 169/74/166 
f 162/36/159 152/71/149 164/71/161 170/36/167 
f 94/50/91 97/51/94 170/36/167 164/71/161 
f 97/51/94 102/55/99 169/74/166 170/36/167 
f 57/34/56 56/35/55 171/35/168 172/70/169 
f 56/35/55 55/37/54 173/37/170 171/35/168 
f 32/28/32 29/22/29 171/35/168 173/37/170 
f 29/22/29 28/27/28 172/70/169 171/35/168 
f 55/37/54 63/41/54 174/41/171 173/37/170 
f 63/41/54 62/42/54 175/42/170 174/41/171 
f 39/31/32 37/13/37 174/41/171 175/42/170 
f 37/13/37 32/28/32 173/37/170 174/41/171 
f 62/42/54 69/45/66 176/45/172 175/42/170 
f 69/45/66 68/46/65 177/56/173 176/45/172 
f 45/1/44 43/4/42 176/45/172 177/56/173 
f 43/4/42 39/31/32 175/42/170 176/45/172 
f 68/46/65 75/47/72 178/47/174 177/56/173 
f 75/47/72 74/48/71 179/57/175 178/47/174 
f 47/5/46 46/2/45 178/47/174 179/57/175 
f 46/2/45 45/1/44 177/56/173 178/47/174 
f 74/48/71 81/49/78 180/49/176 179/57/175 
f 81/49/78 80/43/77 181/43/177 180/49/176 
f 41/33/40 48/6/47 180/49/176 181/43/177 
f 48/6/47 47/5/46 179/57/175 180/49/176 
f 80/43/77 87/44/84 182/44/178 181/43/177 
f 87/44/84 86/38/83 183/38/179 182/44/178 
f 34/30/34 42/15/41 182/44/178 183/38/179 
f 42/15/41 41/33/40 181/43/177 182/44/178 
f 86/38/83 93/39/90 184/39/180 183/38/179 
f 93/39/90 92/40/89 185/67/181 184/39/180 
f 36/25/36 35/24/35 184/39/180 185/67/181 
f 35/24/35 34/30/34 183/38/179 184/39/180 
f 92/40/89 140/36/137 186/36/182 185/67/181 
f 140/36/137 57/34/56 172/70/169 186/36/182 
f 28/27/28 31/26/31 186/36/182 172/70/169 
f 31/26/31 36/25/36 185/67/181 186/36/182 
# 184 polygons

