# 3ds Max Wavefront OBJ Exporter v0.97b - (c)2007 guruware
# File Created: 03.06.2016 23:38:10

mtllib player_r_foot.mtl

#
# object Box001
#

v  -1.0772 0.0000 1.9693
v  -2.0242 0.0000 3.0517
v  -4.0441 0.4122 2.0520
v  -2.9723 0.3884 0.9515
v  -0.1551 0.0000 0.9419
v  -1.8374 0.3351 -0.0103
v  1.5087 0.3351 1.9216
v  0.7439 0.3884 3.0970
v  -0.1152 0.4122 4.2162
v  1.2524 1.5537 3.6195
v  0.3733 1.6489 4.8243
v  2.0386 1.3404 2.2848
v  2.5512 1.2693 -3.7344
v  3.6991 1.2693 -2.6817
v  3.2682 0.5642 -2.6273
v  2.3823 0.3173 -3.4420
v  1.0656 1.2693 -4.2022
v  1.2338 0.5642 -3.8018
v  -1.6079 1.2693 -1.4565
v  -0.9317 1.2693 -2.6258
v  -0.3958 0.3173 -2.3164
v  -1.0631 0.3173 -1.1420
v  -2.4228 1.3404 -0.2910
v  -3.5540 0.8931 5.7739
v  -4.9425 1.0112 4.9364
v  -4.4518 0.4494 4.6889
v  -3.3719 0.2233 5.4197
v  -1.8751 1.0112 6.0130
v  -2.0415 0.4494 5.6484
v  1.8758 0.0000 -2.5646
v  1.2120 0.0000 -1.3882
v  0.4180 0.3173 -3.4063
v  3.3336 0.3173 -1.7230
v  2.8198 0.3173 -0.4599
v  0.5715 0.0000 -0.1983
v  2.2061 0.3173 0.7455
v  -2.8255 0.0000 4.3570
v  -1.0957 0.3414 5.2238
v  -4.6293 0.3414 3.6003
v  1.7368 4.4369 -2.3124
v  1.2320 4.4369 -1.4577
v  2.5517 4.1996 -0.6857
v  2.9530 4.1996 -1.6518
v  2.1707 4.1996 -3.0655
v  2.9496 4.0151 -2.4233
v  1.2242 4.0151 -3.4195
v  0.5553 4.1996 -3.0361
v  -0.0927 4.1996 -2.2124
v  0.7803 4.4369 -0.7345
v  0.4100 4.1996 -0.1070
v  1.4847 4.0151 0.4292
v  2.0985 4.1996 0.1086
v  -0.5900 4.1996 -1.4436
v  -0.5571 4.0151 -0.7497
v  3.8196 1.2693 -1.4424
v  3.3558 1.2693 -0.1505
v  2.7509 1.2693 1.0600
v  -0.6176 1.3656 5.6593
v  -5.3291 1.3656 3.4946
v  -4.8652 1.6489 1.9387
v  -3.7025 1.5537 0.7588
v  -0.0679 1.2693 -3.6869
# 62 vertices

vn -0.0028 -1.0000 -0.0009
vn -0.0069 -0.9999 -0.0074
vn -0.4966 -0.7942 -0.3502
vn -0.4182 -0.8039 -0.4229
vn 0.0042 -1.0000 0.0067
vn -0.4154 -0.8452 -0.3361
vn 0.4604 -0.8312 0.3118
vn 0.4524 -0.8208 0.3489
vn 0.4443 -0.8165 0.3686
vn 0.6798 -0.5249 0.5121
vn 0.6478 -0.5277 0.5494
vn 0.7041 -0.5348 0.4671
vn 0.4851 -0.3528 -0.8001
vn 0.7902 -0.4735 -0.3890
vn 0.6363 -0.6643 -0.3921
vn 0.3724 -0.7158 -0.5907
vn -0.1008 -0.4896 -0.8661
vn -0.0428 -0.6308 -0.7748
vn -0.7123 -0.5498 -0.4361
vn -0.7010 -0.5364 -0.4700
vn -0.4708 -0.8271 -0.3068
vn -0.4610 -0.8425 -0.2787
vn -0.6413 -0.5312 -0.5537
vn -0.3231 -0.5352 0.7805
vn -0.6587 -0.6651 0.3518
vn -0.4815 -0.8134 0.3265
vn -0.2357 -0.8073 0.5411
vn 0.2036 -0.5692 0.7966
vn 0.1117 -0.7197 0.6853
vn 0.0934 -0.9867 -0.1333
vn 0.0029 -1.0000 -0.0015
vn -0.3336 -0.7712 -0.5423
vn 0.6180 -0.7858 0.0219
vn 0.5137 -0.8271 0.2282
vn 0.0029 -1.0000 0.0021
vn 0.4815 -0.8341 0.2691
vn -0.0454 -0.9957 0.0807
vn 0.3369 -0.8024 0.4926
vn -0.5623 -0.8245 -0.0635
vn 0.0605 0.9902 -0.1260
vn -0.0003 1.0000 -0.0033
vn 0.1398 0.9875 0.0733
vn 0.2281 0.9730 -0.0347
vn 0.1234 0.9593 -0.2541
vn 0.3900 0.8951 -0.2158
vn 0.0063 0.9335 -0.3586
vn -0.0619 0.9761 -0.2081
vn -0.1258 0.9881 -0.0889
vn -0.0751 0.9880 0.1352
vn -0.1512 0.9471 0.2832
vn -0.0604 0.9262 0.3723
vn 0.0433 0.9768 0.2096
vn -0.2104 0.9761 0.0538
vn -0.3430 0.9036 0.2566
vn 0.8591 -0.4924 0.1395
vn 0.7701 -0.5440 0.3333
vn 0.7306 -0.5483 0.4069
vn 0.5286 -0.5395 0.6554
vn -0.8102 -0.5646 -0.1575
vn -0.7212 -0.5244 -0.4527
vn -0.6192 -0.4959 -0.6088
vn -0.5326 -0.4977 -0.6846
# 62 vertex normals

vt 0.6250 0.5000 0.0000
vt 0.7500 0.5000 0.0000
vt 0.7500 1.0000 0.0000
vt 0.6250 1.0000 0.0000
vt 0.5000 0.5000 0.0000
vt 0.5000 1.0000 0.0000
vt 0.5000 0.0000 0.0000
vt 0.6250 0.0000 0.0000
vt 0.7500 0.0000 0.0000
vt 0.3750 0.5000 0.0000
vt 0.2500 0.5000 0.0000
vt 0.2500 0.0000 0.0000
vt 0.3750 0.0000 0.0000
vt 0.0000 0.5000 0.0000
vt 0.0000 0.0000 0.0000
vt 1.0000 0.5000 0.0000
vt 1.0000 0.0000 0.0000
vt 0.1250 0.5000 0.0000
vt 0.2500 1.0000 0.0000
vt 0.1250 1.0000 0.0000
vt 0.0000 1.0000 0.0000
vt 0.1250 0.0000 0.0000
vt 0.3750 1.0000 0.0000
vt 0.8750 0.5000 0.0000
vt 0.8750 0.0000 0.0000
vt 1.0000 1.0000 0.0000
vt 0.8750 1.0000 0.0000
vt 0.7500 0.1250 0.0000
vt 0.8750 0.1250 0.0000
vt 0.9688 0.5000 0.0000
vt 0.9444 0.2222 0.0000
vt 0.9444 0.7778 0.0000
vt 0.8750 0.8750 0.0000
vt 0.7500 0.8750 0.0000
vt 0.5313 0.5000 0.0000
vt 0.5556 0.2222 0.0000
vt 0.6250 0.1250 0.0000
vt 0.6250 0.8750 0.0000
vt 0.5556 0.7778 0.0000
# 39 texture coords

g Box001
usemtl Material__26
s 1
f 1/1/1 2/2/2 3/3/3 4/4/4 
f 5/5/5 1/1/1 4/4/4 6/6/6 
f 1/1/1 5/5/5 7/7/7 8/8/8 
f 2/2/2 1/1/1 8/8/8 9/9/9 
f 10/10/10 11/11/11 9/12/9 8/13/8 
f 12/5/12 10/10/10 8/13/8 7/7/7 
f 13/5/13 14/14/14 15/15/15 16/7/16 
f 17/16/17 13/5/13 16/7/16 18/17/18 
f 19/10/19 20/11/20 21/12/21 22/13/22 
f 23/5/23 19/10/19 22/13/22 6/7/6 
f 24/5/24 25/14/25 26/15/26 27/7/27 
f 28/16/28 24/5/24 27/7/27 29/17/29 
f 30/18/30 31/11/31 21/19/21 32/20/32 
f 16/14/16 30/18/30 32/20/32 18/21/18 
f 30/18/30 16/14/16 15/15/15 33/22/33 
f 31/11/31 30/18/30 33/22/33 34/12/34 
f 35/10/35 5/5/5 6/6/6 22/23/22 
f 31/11/31 35/10/35 22/23/22 21/19/21 
f 35/10/35 31/11/31 34/12/34 36/13/36 
f 5/5/5 35/10/35 36/13/36 7/7/7 
f 37/24/37 2/2/2 9/9/9 38/25/38 
f 27/16/27 37/24/37 38/25/38 29/17/29 
f 37/24/37 27/16/27 26/26/26 39/27/39 
f 2/2/2 37/24/37 39/27/39 3/3/3 
f 40/24/40 41/2/41 42/28/42 43/29/43 
f 44/30/44 40/24/40 43/29/43 45/31/45 
f 40/24/40 44/30/44 46/32/46 47/33/47 
f 41/2/41 40/24/40 47/33/47 48/34/48 
f 49/1/49 50/35/50 51/36/51 52/37/52 
f 41/2/41 49/1/49 52/37/52 42/28/42 
f 49/1/49 41/2/41 48/34/48 53/38/53 
f 50/35/50 49/1/49 53/38/53 54/39/54 
f 55/24/55 56/2/56 34/9/34 33/25/33 
f 14/16/14 55/24/55 33/25/33 15/17/15 
f 57/1/57 12/5/12 7/7/7 36/8/36 
f 56/2/56 57/1/57 36/8/36 34/9/34 
f 58/18/58 28/14/28 29/15/29 38/22/38 
f 11/11/11 58/18/58 38/22/38 9/12/9 
f 59/24/59 60/2/60 3/9/3 39/25/39 
f 25/16/25 59/24/59 39/25/39 26/17/26 
f 61/1/61 23/5/23 6/7/6 4/8/4 
f 60/2/60 61/1/61 4/8/4 3/9/3 
f 62/18/62 17/14/17 18/15/18 32/22/32 
f 20/11/20 62/18/62 32/22/32 21/12/21 
# 44 polygons

#
# object Object005
#

v  -1.3728 3.1075 2.4091
v  -2.4676 3.2978 3.7114
v  -0.4478 2.8856 4.7110
v  0.5222 2.7190 3.4268
v  -0.3347 2.9182 1.2166
v  1.6806 2.5671 1.9953
v  -1.9454 2.5671 -0.0982
v  -3.1940 2.7190 1.2813
v  -4.3766 2.8856 2.5468
v  1.2524 1.5537 3.6195
v  2.0386 1.3404 2.2848
v  0.3733 1.6489 4.8243
v  2.5512 1.2693 -3.7344
v  1.0656 1.2693 -4.2022
v  1.0698 2.4586 -4.1270
v  2.5158 2.4586 -3.6717
v  3.6991 1.2693 -2.6817
v  3.6331 2.4586 -2.6471
v  -1.6079 1.2693 -1.4565
v  -2.4228 1.3404 -0.2910
v  -1.5237 2.4586 -1.4901
v  -0.9317 1.2693 -2.6258
v  -0.8721 2.4586 -2.6016
v  -3.5540 0.8931 5.7739
v  -1.8751 1.0112 6.0130
v  -2.1401 1.7568 5.7950
v  -3.4458 1.7992 5.5297
v  -4.9425 1.0112 4.9364
v  -4.5503 1.7568 4.8355
v  -3.1211 2.7312 4.7969
v  -4.8510 2.3898 3.9301
v  -1.3174 2.3898 5.5536
v  3.8196 1.2693 -1.4424
v  3.7504 2.4586 -1.4408
v  3.3558 1.2693 -0.1505
v  3.3012 2.4586 -0.1921
v  2.7509 1.2693 1.0600
v  2.7190 2.4586 0.9595
v  -0.6176 1.3656 5.6593
v  -5.3291 1.3656 3.4946
v  -4.8652 1.6489 1.9387
v  -3.7025 1.5537 0.7588
v  -0.0679 1.2693 -3.6869
v  -0.0335 2.4586 -3.6254
v  2.4097 3.4878 -3.4836
v  3.4353 3.4878 -2.5432
v  1.0824 3.4878 -3.9016
v  1.2242 4.0151 -3.4195
v  2.1707 4.1996 -3.0655
v  2.9496 4.0151 -2.4233
v  0.0697 3.4878 -3.4412
v  -0.6932 3.4878 -2.5287
v  -0.0927 4.1996 -2.2124
v  0.5553 4.1996 -3.0361
v  -1.2712 3.4878 -1.5906
v  -1.1589 3.4878 -0.6023
v  -0.5571 4.0151 -0.7497
v  -0.5900 4.1996 -1.4436
v  0.1489 3.4878 0.4606
v  1.7203 3.4878 1.0600
v  1.4847 4.0151 0.4292
v  0.4100 4.1996 -0.1070
v  2.6231 3.4878 0.6578
v  3.1373 3.4878 -0.3172
v  2.5517 4.1996 -0.6857
v  2.0985 4.1996 0.1086
v  3.5429 3.4878 -1.4359
v  2.9530 4.1996 -1.6518
# 68 vertices

vn 0.0598 0.9937 -0.0948
vn -0.0805 0.9876 0.1347
vn 0.3709 0.8050 0.4631
vn 0.4864 0.8285 0.2775
vn -0.1156 0.9758 0.1858
vn 0.4923 0.6542 0.5742
vn -0.6644 0.6892 -0.2890
vn -0.3633 0.8081 -0.4637
vn -0.5524 0.8072 -0.2081
vn 0.7340 0.4818 0.4786
vn 0.8058 0.2879 0.5176
vn 0.6386 0.4813 0.6004
vn 0.4990 0.0604 -0.8645
vn -0.0606 0.0632 -0.9962
vn -0.0601 0.1368 -0.9888
vn 0.4956 0.1319 -0.8585
vn 0.8929 0.0625 -0.4458
vn 0.8864 0.1354 -0.4426
vn -0.8765 0.1335 -0.4626
vn -0.6755 0.4071 -0.6148
vn -0.9185 0.1785 -0.3528
vn -0.8216 0.0512 -0.5678
vn -0.8143 0.1138 -0.5691
vn -0.3318 0.2742 0.9026
vn 0.0059 0.2498 0.9683
vn -0.1090 0.4034 0.9085
vn -0.3212 0.4799 0.8164
vn -0.6886 0.4240 0.5882
vn -0.6085 0.5032 0.6136
vn -0.2528 0.8071 0.5336
vn -0.7159 0.6405 0.2778
vn 0.1285 0.6042 0.7864
vn 0.9908 0.0575 0.1222
vn 0.9846 0.1258 0.1216
vn 0.9178 0.0558 0.3932
vn 0.9113 0.1237 0.3928
vn 0.8781 0.0625 0.4744
vn 0.8174 0.1835 0.5460
vn 0.3862 0.3462 0.8550
vn -0.8996 0.4276 0.0883
vn -0.7463 0.5134 -0.4236
vn -0.5332 0.5292 -0.6600
vn -0.6082 0.0577 -0.7917
vn -0.6027 0.1266 -0.7878
vn 0.4544 0.3877 -0.8020
vn 0.8136 0.4340 -0.3870
vn -0.0565 0.4308 -0.9007
vn 0.0213 0.6567 -0.7538
vn 0.3926 0.5747 -0.7181
vn 0.6739 0.6626 -0.3268
vn -0.5556 0.4314 -0.7108
vn -0.7264 0.4458 -0.5231
vn -0.5902 0.6816 -0.4325
vn -0.4417 0.6698 -0.5970
vn -0.8634 0.4652 -0.1954
vn -0.6930 0.6733 0.2577
vn -0.5927 0.7210 0.3589
vn -0.7016 0.7026 -0.1191
vn -0.3453 0.7552 0.5572
vn 0.0566 0.7351 0.6756
vn -0.1032 0.7373 0.6676
vn -0.3704 0.6653 0.6482
vn 0.6339 0.5266 0.5665
vn 0.8136 0.4549 0.3622
vn 0.6459 0.6987 0.3076
vn 0.4279 0.7534 0.4994
vn 0.8947 0.4319 0.1142
vn 0.7536 0.6547 0.0586
# 68 vertex normals

vt 0.3750 0.5000 0.0000
vt 0.2500 0.5000 0.0000
vt 0.2500 0.0000 0.0000
vt 0.3750 0.0000 0.0000
vt 0.4688 0.5000 0.0000
vt 0.5000 0.0000 0.0000
vt 0.5000 1.0000 0.0000
vt 0.3750 1.0000 0.0000
vt 0.2500 1.0000 0.0000
vt 0.5000 0.5000 0.0000
vt 1.0000 0.5000 0.0000
vt 1.0000 1.0000 0.0000
vt 0.0000 0.5000 0.0000
vt 0.0000 1.0000 0.0000
vt 0.1250 0.5000 0.0000
vt 0.1250 1.0000 0.0000
vt 0.0000 0.0000 0.0000
vt 0.1250 0.0000 0.0000
vt 0.8750 0.5000 0.0000
vt 0.8750 1.0000 0.0000
vt 0.7500 0.5000 0.0000
vt 0.7500 1.0000 0.0000
vt 0.6250 0.5000 0.0000
vt 0.6250 1.0000 0.0000
vt 0.9688 0.1250 0.0000
vt 1.0000 0.0000 0.0000
vt 0.9688 0.8750 0.0000
vt 0.9444 0.7778 0.0000
vt 0.9688 0.5000 0.0000
vt 0.9444 0.2222 0.0000
vt 0.7500 0.8750 0.0000
vt 0.8750 0.8750 0.0000
vt 0.5313 0.8750 0.0000
vt 0.5556 0.7778 0.0000
vt 0.6250 0.8750 0.0000
vt 0.5313 0.1250 0.0000
vt 0.5556 0.2222 0.0000
vt 0.5313 0.5000 0.0000
vt 0.6250 0.0000 0.0000
vt 0.7500 0.0000 0.0000
vt 0.7500 0.1250 0.0000
vt 0.6250 0.1250 0.0000
vt 0.8750 0.0000 0.0000
vt 0.8750 0.1250 0.0000
# 44 texture coords

g Object005
usemtl Material__62
s 1
f 63/40/63 64/41/64 65/42/65 66/43/66 
f 67/44/67 63/40/63 66/43/66 68/45/68 
f 63/40/63 67/44/67 69/46/69 70/47/70 
f 64/41/64 63/40/63 70/47/70 71/48/71 
f 72/40/72 73/49/73 68/46/68 66/47/66 
f 74/41/74 72/40/72 66/47/66 65/48/65 
f 75/49/75 76/50/76 77/51/77 78/46/78 
f 79/52/79 75/49/75 78/46/78 80/53/80 
f 81/40/81 82/49/82 69/46/69 83/47/83 
f 84/41/84 81/40/81 83/47/83 85/48/85 
f 86/49/86 87/50/87 88/51/88 89/46/89 
f 90/52/90 86/49/86 89/46/89 91/53/91 
f 92/54/92 64/41/64 71/48/71 93/55/93 
f 89/52/89 92/54/92 93/55/93 91/53/91 
f 92/54/92 89/52/89 88/56/88 94/57/94 
f 64/41/64 92/54/92 94/57/94 65/42/65 
f 95/58/95 79/50/79 80/51/80 96/59/96 
f 97/60/97 95/58/95 96/59/96 98/61/98 
f 99/62/99 97/60/97 98/61/98 100/63/100 
f 73/49/73 99/62/99 100/63/100 68/46/68 
f 101/54/101 74/41/74 65/48/65 94/55/94 
f 87/52/87 101/54/101 94/55/94 88/53/88 
f 102/58/102 90/50/90 91/51/91 93/59/93 
f 103/60/103 102/58/102 93/59/93 71/61/71 
f 104/62/104 103/60/103 71/61/71 70/63/70 
f 82/49/82 104/62/104 70/63/70 69/46/69 
f 105/54/105 84/41/84 85/48/85 106/55/106 
f 76/52/76 105/54/105 106/55/106 77/53/77 
f 107/50/107 108/64/108 80/65/80 78/50/78 
f 109/66/109 107/50/107 78/50/78 77/51/77 
f 107/50/107 109/66/109 110/67/110 111/68/111 
f 108/64/108 107/50/107 111/68/111 112/69/112 
f 113/59/113 109/66/109 77/51/77 106/59/106 
f 114/61/114 113/59/113 106/59/106 85/61/85 
f 113/59/113 114/61/114 115/70/115 116/71/116 
f 109/66/109 113/59/113 116/71/116 110/67/110 
f 117/63/117 114/61/114 85/61/85 83/63/83 
f 118/72/118 117/63/117 83/63/83 69/46/69 
f 117/63/117 118/72/118 119/73/119 120/74/120 
f 114/61/114 117/63/117 120/74/120 115/70/115 
f 121/49/121 118/72/118 69/46/69 67/44/67 
f 122/75/122 121/49/121 67/44/67 68/45/68 
f 121/49/121 122/75/122 123/76/123 124/77/124 
f 118/72/118 121/49/121 124/77/124 119/73/119 
f 125/78/125 122/75/122 68/45/68 100/78/100 
f 126/79/126 125/78/125 100/78/100 98/79/98 
f 125/78/125 126/79/126 127/80/127 128/81/128 
f 122/75/122 125/78/125 128/81/128 123/76/123 
f 129/82/129 126/79/126 98/79/98 96/82/96 
f 108/64/108 129/82/129 96/82/96 80/65/80 
f 129/82/129 108/64/108 112/69/112 130/83/130 
f 126/79/126 129/82/129 130/83/130 127/80/127 
# 52 polygons

