# 3ds Max Wavefront OBJ Exporter v0.97b - (c)2007 guruware
# File Created: 03.06.2016 21:57:47

mtllib player_r_hand.mtl

#
# object Box004
#

v  -2.6131 -0.9190 -0.8594
v  -2.7377 -1.5950 -0.0967
v  -2.1545 -1.9438 -0.1257
v  -2.1545 -1.0653 -1.1190
v  -2.6131 -1.7286 0.7113
v  -2.1545 -2.1248 0.9257
v  -1.6958 -1.7286 0.7113
v  -1.5712 -1.5950 -0.0967
v  -1.6958 -0.9190 -0.8594
v  -0.4587 -1.1953 -0.8594
v  -0.5833 -1.9059 -0.0967
v  0.0000 -2.2991 -0.1257
v  0.0000 -1.3762 -1.1190
v  -0.4587 -2.0049 0.7113
v  0.0000 -2.4356 0.9257
v  0.4587 -2.0049 0.7113
v  0.5833 -1.9059 -0.0967
v  0.4587 -1.1953 -0.8594
v  1.6958 -0.5641 -0.8594
v  1.5712 -1.1958 -0.0967
v  2.1545 -1.4875 -0.1257
v  2.1545 -0.6661 -1.1190
v  1.6958 -1.3737 0.7113
v  2.1545 -1.7255 0.9257
v  2.6131 -1.3737 0.7113
v  2.7377 -1.1958 -0.0967
v  2.6131 -0.5641 -0.8594
v  -1.2039 5.5594 1.2867
v  -0.7231 5.7809 1.2352
v  -0.5718 5.4818 2.0760
v  -1.1529 5.3438 1.9874
v  -0.1839 5.7809 1.2352
v  -0.1049 5.4818 2.0760
v  -0.1839 4.8081 2.6565
v  -0.7231 4.8503 2.6921
v  -1.2039 4.8884 2.5292
v  0.3379 5.7809 1.2352
v  0.3517 5.4818 2.0760
v  0.8098 5.7809 1.2352
v  0.7652 5.4818 2.0760
v  0.8098 4.7940 2.6446
v  0.3379 4.7940 2.6446
v  1.1994 5.7809 1.2352
v  1.1032 5.4818 2.0760
v  1.5052 5.5344 1.2656
v  1.4727 5.2875 1.9399
v  1.5052 4.7383 2.4025
v  1.1994 4.7940 2.6446
v  -3.1281 1.5333 -1.0327
v  -2.1079 1.7300 -1.4165
v  -1.9682 3.3217 -1.0235
v  -2.9869 3.1859 -0.7414
v  -1.0584 1.4357 -1.3187
v  -0.9073 3.3217 -1.0235
v  -0.7008 4.6830 -0.3977
v  -1.6772 4.6830 -0.3977
v  -2.6942 4.5914 -0.0091
v  0.0302 1.6856 -1.4165
v  0.1208 3.3217 -1.0235
v  1.0797 1.4610 -1.3187
v  1.0998 3.3217 -1.0235
v  1.0721 4.6830 -0.3977
v  0.2251 4.6830 -0.3977
v  2.1193 1.7870 -1.4165
v  2.0136 3.3217 -1.0235
v  2.8567 1.5752 -1.0154
v  2.6744 3.0879 -0.6309
v  2.3262 4.4463 -0.0450
v  1.8117 4.6830 -0.3977
v  3.1025 0.9396 0.1877
v  2.8947 2.3866 0.5470
v  2.8567 0.3040 1.3909
v  2.6744 1.6852 1.7248
v  2.3262 3.0260 2.0715
v  2.4977 3.7362 1.0133
v  2.1193 0.0921 1.7919
v  2.0136 1.4515 2.1174
v  1.0797 -0.0351 1.5783
v  1.0998 1.4515 2.1174
v  1.0721 2.7893 2.4243
v  1.8117 2.7893 2.4243
v  0.0302 -0.0093 1.7919
v  0.1208 1.4515 2.1174
v  -1.0584 -0.0542 1.5836
v  -0.9073 1.5078 2.1649
v  -0.7008 2.8738 2.4955
v  0.2251 2.7893 2.4243
v  -2.1079 0.0914 1.8394
v  -1.9682 1.6767 2.3074
v  -2.9657 0.2606 1.6343
v  -2.7431 1.8755 2.4782
v  -2.6224 3.5936 2.7757
v  -1.6772 3.1271 2.7092
v  -1.9300 -0.2331 2.6560
v  -1.9488 -0.7738 2.6699
v  -2.0710 -0.4276 3.0353
v  -1.8757 0.1448 2.8640
v  -2.5122 -1.0693 2.8120
v  -2.7304 -0.9044 3.1746
v  -3.0880 -0.4265 3.4036
v  -2.6573 0.0142 3.3687
v  -2.4038 0.3583 3.1559
v  -3.2383 0.5066 0.2668
v  -3.0520 -0.5488 -0.0095
v  -2.8276 0.0229 -1.1265
v  -2.8276 -1.1205 1.1075
v  -2.1545 -1.3111 1.4798
v  -1.4814 -1.1205 1.1075
v  -1.0772 0.1043 0.0486
v  -1.2570 -0.5488 -0.0095
v  -1.4814 0.0229 -1.1265
v  -2.1545 0.2135 -1.4988
v  -0.8975 -0.7264 -0.0095
v  -0.6731 -0.1547 -1.1265
v  -0.6731 -1.2981 1.1075
v  0.0000 -1.4887 1.4798
v  0.6731 -1.2981 1.1075
v  1.0772 0.1613 0.0486
v  0.8975 -0.7264 -0.0095
v  0.6731 -0.1547 -1.1265
v  0.0000 0.0358 -1.4988
v  1.2570 -0.3207 -0.0095
v  1.4814 0.2510 -1.1265
v  1.4814 -0.8923 1.1075
v  2.1545 -1.0829 1.4798
v  2.8276 -0.8923 1.1075
v  3.0520 -0.3207 -0.0095
v  2.8276 0.2510 -1.1265
v  2.1545 0.4416 -1.4988
v  -3.4376 0.8828 0.8632
v  -2.9212 0.9559 1.8722
v  -3.9357 1.5683 0.1015
v  -4.4058 1.0201 1.0956
v  -3.5685 0.7005 1.5136
v  -2.7914 1.0118 2.1444
v  -3.8886 2.7787 0.1050
v  -3.5977 3.7998 0.7348
v  -4.1762 2.9242 1.6241
v  -4.4917 1.9754 1.1666
v  -2.7585 4.4005 1.5770
v  -3.3642 3.9176 1.8522
v  -3.1491 3.2767 2.7223
v  -3.3821 2.8931 2.8935
v  -3.8093 3.2241 2.3652
v  -2.9132 2.0217 2.6104
v  -2.8861 1.9491 2.7121
v  -3.5492 0.0805 1.9515
v  -2.9300 0.6414 2.3039
v  -4.3146 0.0152 1.8449
v  -3.8038 -0.9293 2.3548
v  -3.2464 -0.5683 2.2401
v  -2.9027 0.1700 2.4090
v  -4.6144 0.6516 2.0948
v  -4.5279 1.4981 2.5188
v  -4.4746 0.1883 3.2198
v  -4.2943 -0.5561 2.7806
v  -4.1343 2.0628 2.9344
v  -3.5945 2.1320 3.1043
v  -3.5140 1.3156 3.2458
v  -4.1012 0.9405 3.3746
v  -3.0691 1.4917 2.7911
v  -3.0532 0.9283 2.8341
v  -2.5267 -0.8369 2.4422
v  -2.2749 -0.0770 2.5184
v  -3.0148 -1.2965 2.6306
v  -3.5689 -1.0110 3.1151
v  -3.8381 -0.3382 3.5277
v  -3.4714 0.3640 3.5006
v  -2.8685 0.7659 3.2089
v  -2.4292 0.5381 2.8277
v  -1.1769 5.5087 0.3829
v  -1.7579 5.3639 0.7176
v  -0.4211 5.5087 0.3829
v  0.2966 5.5087 0.3829
v  0.9438 5.5087 0.3829
v  1.4880 5.5087 0.3829
v  1.8575 5.3076 0.6701
v  1.9806 4.7044 1.5316
v  1.8575 4.1011 2.3932
v  1.4880 3.9000 2.6804
v  0.9438 3.9000 2.6804
v  0.2966 3.9000 2.6804
v  -0.4211 3.9563 2.7278
v  -1.1769 4.1252 2.8703
v  -1.7579 4.4389 2.6781
v  -1.9516 4.9296 1.7216
# 186 vertices

vn -0.6655 -0.4162 -0.6196
vn -0.7644 -0.5813 -0.2789
vn 0.0086 -0.9162 -0.4006
vn -0.0219 -0.5388 -0.8421
vn -0.7948 -0.5806 0.1764
vn 0.0290 -0.9168 0.3983
vn 0.7542 -0.6181 0.2215
vn 0.7601 -0.5921 -0.2676
vn 0.7113 -0.4040 -0.5752
vn -0.6872 -0.3822 -0.6178
vn -0.7866 -0.5562 -0.2682
vn 0.0097 -0.9220 -0.3872
vn -0.0211 -0.5244 -0.8512
vn -0.8159 -0.5357 0.2178
vn 0.0273 -0.8995 0.4361
vn 0.7771 -0.5717 0.2633
vn 0.7829 -0.5686 -0.2525
vn 0.7313 -0.3700 -0.5729
vn -0.6296 -0.4669 -0.6210
vn -0.7290 -0.6176 -0.2951
vn 0.0070 -0.9089 -0.4169
vn -0.0234 -0.5609 -0.8275
vn -0.7569 -0.6440 0.1113
vn 0.0320 -0.9408 0.3375
vn 0.7139 -0.6828 0.1553
vn 0.7242 -0.6259 -0.2895
vn 0.6776 -0.4553 -0.5776
vn -0.4324 0.8733 0.2243
vn -0.1646 0.9842 0.0648
vn -0.1192 0.8328 0.5407
vn -0.3726 0.8124 0.4485
vn -0.0000 0.9999 0.0163
vn 0.0032 0.8228 0.5684
vn 0.0576 0.3772 0.9243
vn -0.0366 0.4676 0.8832
vn -0.2743 0.6342 0.7229
vn 0.0000 0.9999 0.0163
vn -0.0000 0.8192 0.5736
vn 0.0000 0.8192 0.5736
vn -0.0000 0.3573 0.9340
vn 0.0126 0.3582 0.9336
vn 0.2847 0.9569 0.0574
vn 0.2557 0.7901 0.5571
vn 0.6739 0.7185 0.1723
vn 0.6725 0.6011 0.4317
vn 0.6829 0.4425 0.5812
vn 0.2761 0.3929 0.8772
vn -0.6538 -0.0255 -0.7562
vn -0.1534 0.1381 -0.9785
vn -0.1601 0.3391 -0.9270
vn -0.5341 0.3419 -0.7732
vn 0.0456 -0.0323 -0.9984
vn 0.0118 0.3004 -0.9537
vn 0.0000 0.5598 -0.8287
vn -0.1686 0.5941 -0.7865
vn -0.5870 0.6840 -0.4330
vn -0.0358 0.1131 -0.9929
vn -0.0114 0.3154 -0.9489
vn 0.0542 -0.0426 -0.9976
vn 0.0112 0.3017 -0.9533
vn -0.0000 0.5598 -0.8287
vn 0.1792 0.1462 -0.9729
vn 0.2911 0.3415 -0.8937
vn 0.8205 0.1376 -0.5548
vn 0.8400 0.3034 -0.4499
vn 0.8356 0.4687 -0.2865
vn 0.3418 0.5863 -0.7344
vn 0.9989 0.0433 0.0156
vn 0.9799 0.1766 0.0928
vn 0.8250 -0.0994 0.5564
vn 0.8168 0.0054 0.5769
vn 0.8055 0.1055 0.5831
vn 0.9399 0.2911 0.1786
vn 0.2060 -0.2476 0.9467
vn 0.2828 -0.1840 0.9414
vn -0.0051 -0.4811 0.8766
vn -0.0156 -0.2663 0.9638
vn -0.0000 -0.2241 0.9746
vn 0.3110 -0.1404 0.9400
vn 0.0520 -0.2689 0.9618
vn 0.0370 -0.2452 0.9688
vn -0.0470 -0.4726 0.8800
vn 0.0402 -0.2849 0.9577
vn 0.0978 -0.2366 0.9667
vn 0.0263 -0.2251 0.9740
vn 0.0007 -0.3293 0.9442
vn 0.1064 -0.2792 0.9543
vn -0.7234 -0.2983 0.6226
vn 0.1604 -0.3612 0.9186
vn -0.2530 0.3133 0.9153
vn 0.0312 -0.1852 0.9822
vn 0.8601 0.0402 -0.5086
vn 0.8300 -0.5100 -0.2257
vn 0.6802 -0.2129 0.7015
vn 0.9106 0.4133 -0.0013
vn 0.4531 -0.8828 0.1243
vn 0.2553 -0.5701 0.7809
vn 0.1618 -0.2657 0.9504
vn 0.3397 0.0469 0.9394
vn 0.4967 0.3679 0.7861
vn -0.9371 -0.3404 -0.0766
vn -0.9676 -0.2280 -0.1087
vn -0.7145 -0.1988 -0.6707
vn -0.8198 -0.3727 0.4348
vn 0.0338 -0.4592 0.8877
vn 0.7628 -0.4449 0.4692
vn -0.0435 -0.8479 -0.5284
vn 0.9453 -0.2803 -0.1669
vn 0.7073 -0.2976 -0.6413
vn -0.0728 -0.1481 -0.9863
vn -0.9659 -0.2377 -0.1031
vn -0.6907 -0.2336 -0.6844
vn -0.8163 -0.4051 0.4117
vn 0.0499 -0.4250 0.9038
vn 0.7777 -0.3876 0.4950
vn 0.0752 -0.8403 -0.5369
vn 0.9596 -0.2394 -0.1476
vn 0.7305 -0.2587 -0.6321
vn -0.0646 -0.1389 -0.9882
vn -0.9294 -0.3343 -0.1565
vn -0.6452 -0.3030 -0.7014
vn -0.7788 -0.5355 0.3267
vn 0.0700 -0.5259 0.8477
vn 0.8025 -0.3687 0.4690
vn 0.9778 -0.1837 -0.1010
vn 0.7657 -0.1469 -0.6261
vn -0.0011 -0.1106 -0.9939
vn -0.6038 -0.7893 -0.1112
vn -0.4723 -0.8100 0.3477
vn -0.8136 -0.2866 -0.5059
vn -0.7088 -0.4703 -0.5258
vn 0.3169 -0.7796 -0.5401
vn 0.9768 -0.1352 -0.1663
vn -0.8340 0.2865 -0.4716
vn -0.7856 0.5949 -0.1701
vn -0.8901 0.4530 0.0497
vn -0.9646 0.1554 -0.2130
vn -0.5684 0.7676 0.2962
vn -0.5788 0.7369 0.3493
vn -0.2751 0.4232 0.8633
vn -0.0655 0.3511 0.9341
vn -0.6462 0.5923 0.4813
vn 0.9073 -0.0197 0.4200
vn 0.8596 0.0770 0.5051
vn 0.3783 -0.3867 -0.8410
vn 0.9577 -0.2036 -0.2035
vn -0.5160 -0.5515 -0.6554
vn -0.3557 -0.7653 -0.5365
vn 0.2193 -0.2660 -0.9387
vn 0.5639 0.1380 -0.8142
vn -0.9868 -0.1355 -0.0886
vn -0.9423 0.2060 0.2638
vn -0.8065 -0.1113 0.5806
vn -0.8065 -0.5797 0.1162
vn -0.6320 0.3694 0.6813
vn 0.0813 0.2448 0.9662
vn 0.3312 0.2887 0.8983
vn -0.3823 0.2219 0.8970
vn 0.6949 -0.0346 0.7183
vn 0.8590 0.5112 0.0293
vn 0.3181 -0.4009 -0.8591
vn 0.3709 0.2568 -0.8925
vn 0.0771 -0.9683 -0.2375
vn -0.3013 -0.7871 0.5382
vn -0.3011 -0.2935 0.9073
vn 0.0541 0.1684 0.9842
vn 0.4804 0.5352 0.6948
vn 0.5286 0.7513 -0.3951
vn -0.1744 0.8717 -0.4581
vn -0.4996 0.8645 -0.0543
vn -0.0000 0.8466 -0.5323
vn 0.0000 0.8466 -0.5323
vn 0.3168 0.8428 -0.4351
vn 0.7528 0.6563 -0.0501
vn 0.8646 0.4145 0.2840
vn 0.7456 0.2430 0.6205
vn 0.2952 -0.0110 0.9554
vn 0.0000 -0.0932 0.9956
vn 0.0254 -0.0937 0.9953
vn 0.1034 -0.0847 0.9910
vn -0.0403 0.0594 0.9974
vn -0.3688 0.4733 0.8000
vn -0.5495 0.7530 0.3620
# 183 vertex normals

vt 0.9259 0.2222 0.0000
vt 0.9583 0.5000 0.0000
vt 0.8333 0.5000 0.0000
vt 0.8333 0.1250 0.0000
vt 0.9259 0.7778 0.0000
vt 0.8333 0.8750 0.0000
vt 0.7407 0.7778 0.0000
vt 0.7083 0.5000 0.0000
vt 0.7407 0.2222 0.0000
vt 0.5926 0.2222 0.0000
vt 0.6250 0.5000 0.0000
vt 0.5000 0.5000 0.0000
vt 0.5000 0.1250 0.0000
vt 0.5926 0.7778 0.0000
vt 0.5000 0.8750 0.0000
vt 0.4074 0.7778 0.0000
vt 0.3750 0.5000 0.0000
vt 0.4074 0.2222 0.0000
vt 0.2593 0.2222 0.0000
vt 0.2917 0.5000 0.0000
vt 0.1667 0.5000 0.0000
vt 0.1667 0.1250 0.0000
vt 0.2593 0.7778 0.0000
vt 0.1667 0.8750 0.0000
vt 0.0741 0.7778 0.0000
vt 0.0417 0.5000 0.0000
vt 0.0741 0.2222 0.0000
vt 0.3333 0.1250 0.0000
vt 0.3333 0.5000 0.0000
vt 0.3333 0.8750 0.0000
vt 0.6667 0.1250 0.0000
vt 0.6667 0.5000 0.0000
vt 0.6667 0.8750 0.0000
vt 0.0000 0.0000 0.0000
vt 0.1667 0.0000 0.0000
vt 0.0000 0.5000 0.0000
vt 0.3333 0.0000 0.0000
vt 0.3333 1.0000 0.0000
vt 0.1667 1.0000 0.0000
vt 0.0000 1.0000 0.0000
vt 0.5000 0.0000 0.0000
vt 0.6667 0.0000 0.0000
vt 0.6667 1.0000 0.0000
vt 0.5000 1.0000 0.0000
vt 0.8333 0.0000 0.0000
vt 1.0000 0.0000 0.0000
vt 1.0000 0.5000 0.0000
vt 1.0000 1.0000 0.0000
vt 0.8333 1.0000 0.0000
vt 0.2222 0.2222 0.0000
vt 0.1250 0.5000 0.0000
vt 0.7778 0.2222 0.0000
vt 0.8750 0.5000 0.0000
vt 0.7778 0.7778 0.0000
vt 0.2222 0.7778 0.0000
vt 0.9583 0.1250 0.0000
vt 0.9583 0.8750 0.0000
vt 0.7083 0.8750 0.0000
vt 0.7083 0.1250 0.0000
vt 0.6250 0.1250 0.0000
vt 0.6250 0.8750 0.0000
vt 0.3750 0.8750 0.0000
vt 0.3750 0.1250 0.0000
vt 0.2917 0.1250 0.0000
vt 0.2917 0.8750 0.0000
vt -0.0000 1.0000 0.0000
vt 0.0417 0.8750 0.0000
vt -0.0000 0.5000 0.0000
vt -0.0000 0.0000 0.0000
vt 0.0417 0.1250 0.0000
vt 0.1250 0.1250 0.0000
vt 0.8750 0.1250 0.0000
vt 0.8750 0.8750 0.0000
vt 0.1250 0.8750 0.0000
# 74 texture coords

g Box004
usemtl Material__26
s 1
f 4/4/4 3/3/3 2/2/2 1/1/1 
f 3/3/3 6/6/6 5/5/5 2/2/2 
f 6/6/6 3/3/3 8/8/8 7/7/7 
f 3/3/3 4/4/4 9/9/9 8/8/8 
f 13/13/13 12/12/12 11/11/11 10/10/10 
f 12/12/12 15/15/15 14/14/14 11/11/11 
f 15/15/15 12/12/12 17/17/17 16/16/16 
f 12/12/12 13/13/13 18/18/18 17/17/17 
f 22/22/22 21/21/21 20/20/20 19/19/19 
f 21/21/21 24/24/24 23/23/23 20/20/20 
f 24/24/24 21/21/21 26/26/26 25/25/25 
f 21/21/21 22/22/22 27/27/27 26/26/26 
f 31/26/31 30/21/30 29/22/29 28/27/28 
f 30/21/30 33/29/33 32/28/32 29/22/29 
f 33/29/33 30/21/30 35/24/35 34/30/34 
f 30/21/30 31/26/31 36/25/36 35/24/35 
f 33/29/33 38/12/38 37/13/37 32/28/32 
f 38/12/38 40/32/39 39/31/32 37/13/37 
f 40/32/39 38/12/38 42/15/41 41/33/40 
f 38/12/38 33/29/33 34/30/34 42/15/41 
f 40/32/39 44/3/43 43/4/42 39/31/32 
f 44/3/43 46/2/45 45/1/44 43/4/42 
f 46/2/45 44/3/43 48/6/47 47/5/46 
f 44/3/43 40/32/39 41/33/40 48/6/47 
f 52/36/51 51/21/50 50/35/49 49/34/48 
f 51/21/50 54/29/53 53/37/52 50/35/49 
f 54/29/53 51/21/50 56/39/55 55/38/54 
f 51/21/50 52/36/51 57/40/56 56/39/55 
f 54/29/53 59/12/58 58/41/57 53/37/52 
f 59/12/58 61/32/60 60/42/59 58/41/57 
f 61/32/60 59/12/58 63/44/61 62/43/61 
f 59/12/58 54/29/53 55/38/54 63/44/61 
f 61/32/60 65/3/63 64/45/62 60/42/59 
f 65/3/63 67/47/65 66/46/64 64/45/62 
f 67/47/65 65/3/63 69/49/67 68/48/66 
f 65/3/63 61/32/60 62/43/61 69/49/67 
f 67/36/65 71/12/69 70/41/68 66/34/64 
f 71/12/69 73/47/71 72/46/70 70/41/68 
f 73/47/71 71/12/69 75/44/73 74/48/72 
f 71/12/69 67/36/65 68/40/66 75/44/73 
f 73/36/71 77/21/75 76/35/74 72/34/70 
f 77/21/75 79/29/77 78/37/76 76/35/74 
f 79/29/77 77/21/75 81/39/79 80/38/78 
f 77/21/75 73/36/71 74/40/72 81/39/79 
f 79/29/77 83/12/81 82/41/80 78/37/76 
f 83/12/81 85/32/83 84/42/82 82/41/80 
f 85/32/83 83/12/81 87/44/85 86/43/84 
f 83/12/81 79/29/77 80/38/78 87/44/85 
f 85/32/83 89/3/87 88/45/86 84/42/82 
f 89/3/87 91/47/89 90/46/88 88/45/86 
f 91/47/89 89/3/87 93/49/91 92/48/90 
f 89/3/87 85/32/83 86/43/84 93/49/91 
f 97/51/95 96/12/94 95/13/93 94/50/92 
f 96/12/94 99/53/97 98/52/96 95/13/93 
f 99/53/97 96/12/94 101/15/99 100/54/98 
f 96/12/94 97/51/95 102/55/100 101/15/99 
f 105/56/103 104/47/102 103/47/101 49/46/48 
f 104/47/102 106/57/104 90/48/88 103/47/101 
f 106/57/104 104/47/102 2/2/2 5/5/5 
f 104/47/102 105/56/103 1/1/1 2/2/2 
f 106/57/104 107/49/105 88/49/86 90/48/88 
f 107/49/105 108/58/106 84/43/82 88/49/86 
f 108/58/106 107/49/105 6/6/6 7/7/7 
f 107/49/105 106/57/104 5/5/5 6/6/6 
f 108/58/106 110/32/108 109/32/107 84/43/82 
f 110/32/108 111/59/109 53/42/52 109/32/107 
f 111/59/109 110/32/108 8/8/8 9/9/9 
f 110/32/108 108/58/106 7/7/7 8/8/8 
f 111/59/109 112/45/110 50/45/49 53/42/52 
f 112/45/110 105/56/103 49/46/48 50/45/49 
f 105/56/103 112/45/110 4/4/4 1/1/1 
f 112/45/110 111/59/109 9/9/9 4/4/4 
f 114/60/112 113/32/111 109/32/107 53/42/52 
f 113/32/111 115/61/113 84/43/82 109/32/107 
f 115/61/113 113/32/111 11/11/11 14/14/14 
f 113/32/111 114/60/112 10/10/10 11/11/11 
f 115/61/113 116/44/114 82/44/80 84/43/82 
f 116/44/114 117/62/115 78/38/76 82/44/80 
f 117/62/115 116/44/114 15/15/15 16/16/16 
f 116/44/114 115/61/113 14/14/14 15/15/15 
f 117/62/115 119/29/117 118/29/116 78/38/76 
f 119/29/117 120/63/118 60/37/59 118/29/116 
f 120/63/118 119/29/117 17/17/17 18/18/18 
f 119/29/117 117/62/115 16/16/16 17/17/17 
f 120/63/118 121/41/119 58/41/57 60/37/59 
f 121/41/119 114/60/112 53/42/52 58/41/57 
f 114/60/112 121/41/119 13/13/13 10/10/10 
f 121/41/119 120/63/118 18/18/18 13/13/13 
f 123/64/121 122/29/120 118/29/116 60/37/59 
f 122/29/120 124/65/122 78/38/76 118/29/116 
f 124/65/122 122/29/120 20/20/20 23/23/23 
f 122/29/120 123/64/121 19/19/19 20/20/20 
f 124/65/122 125/39/123 76/39/74 78/38/76 
f 125/39/123 126/67/124 72/66/70 76/39/74 
f 126/67/124 125/39/123 24/24/24 25/25/25 
f 125/39/123 124/65/122 23/23/23 24/24/24 
f 126/67/124 127/68/125 70/68/68 72/66/70 
f 127/68/125 128/70/126 66/69/64 70/68/68 
f 128/70/126 127/68/125 26/26/26 27/27/27 
f 127/68/125 126/67/124 25/25/25 26/26/26 
f 128/70/126 129/35/127 64/35/62 66/69/64 
f 129/35/127 123/64/121 60/37/59 64/35/62 
f 123/64/121 129/35/127 22/22/22 19/19/19 
f 129/35/127 128/70/126 27/27/27 22/22/22 
f 131/71/129 130/41/128 103/41/101 90/34/88 
f 130/41/128 132/72/130 49/46/48 103/41/101 
f 132/72/130 130/41/128 134/41/132 133/72/131 
f 130/41/128 131/71/129 135/71/133 134/41/132 
f 132/72/130 136/47/134 52/47/51 49/46/48 
f 136/47/134 137/73/135 57/48/56 52/47/51 
f 137/73/135 136/47/134 139/47/137 138/73/136 
f 136/47/134 132/72/130 133/72/131 139/47/137 
f 137/73/135 141/44/139 140/44/138 57/48/56 
f 141/44/139 142/74/140 92/40/90 140/44/138 
f 142/74/140 141/44/139 144/44/142 143/74/141 
f 141/44/139 137/73/135 138/73/136 144/44/142 
f 142/74/140 145/36/143 91/36/89 92/40/90 
f 145/36/143 131/71/129 90/34/88 91/36/89 
f 131/71/129 145/36/143 146/36/144 135/71/133 
f 145/36/143 142/74/140 143/74/141 146/36/144 
f 148/71/146 147/41/145 134/41/132 135/71/133 
f 147/41/145 149/72/147 133/72/131 134/41/132 
f 149/72/147 147/41/145 151/41/149 150/72/148 
f 147/41/145 148/71/146 152/71/150 151/41/149 
f 149/72/147 153/47/151 139/47/137 133/72/131 
f 153/47/151 154/73/152 138/73/136 139/47/137 
f 154/73/152 153/47/151 156/47/154 155/73/153 
f 153/47/151 149/72/147 150/72/148 156/47/154 
f 154/73/152 157/44/155 144/44/142 138/73/136 
f 157/44/155 158/74/156 143/74/141 144/44/142 
f 158/74/156 157/44/155 160/44/158 159/74/157 
f 157/44/155 154/73/152 155/73/153 160/44/158 
f 158/74/156 161/36/159 146/36/144 143/74/141 
f 161/36/159 148/71/146 135/71/133 146/36/144 
f 148/71/146 161/36/159 162/36/160 152/71/150 
f 161/36/159 158/74/156 159/74/157 162/36/160 
f 164/71/162 163/41/161 151/41/149 152/71/150 
f 163/41/161 165/72/163 150/72/148 151/41/149 
f 165/72/163 163/41/161 95/13/93 98/52/96 
f 163/41/161 164/71/162 94/50/92 95/13/93 
f 165/72/163 166/47/164 156/47/154 150/72/148 
f 166/47/164 167/73/165 155/73/153 156/47/154 
f 167/73/165 166/47/164 99/53/97 100/54/98 
f 166/47/164 165/72/163 98/52/96 99/53/97 
f 167/73/165 168/44/166 160/44/158 155/73/153 
f 168/44/166 169/74/167 159/74/157 160/44/158 
f 169/74/167 168/44/166 101/15/99 102/55/100 
f 168/44/166 167/73/165 100/54/98 101/15/99 
f 169/74/167 170/36/168 162/36/160 159/74/157 
f 170/36/168 164/71/162 152/71/150 162/36/160 
f 164/71/162 170/36/168 97/51/95 94/50/92 
f 170/36/168 169/74/167 102/55/100 97/51/95 
f 172/70/170 171/35/169 56/35/55 57/34/56 
f 171/35/169 173/37/171 55/37/54 56/35/55 
f 173/37/171 171/35/169 29/22/29 32/28/32 
f 171/35/169 172/70/170 28/27/28 29/22/29 
f 173/37/171 174/41/172 63/41/61 55/37/54 
f 174/41/172 175/42/171 62/42/61 63/41/61 
f 175/42/171 174/41/172 37/13/37 39/31/32 
f 174/41/172 173/37/171 32/28/32 37/13/37 
f 175/42/171 176/45/173 69/45/67 62/42/61 
f 176/45/173 177/56/174 68/46/66 69/45/67 
f 177/56/174 176/45/173 43/4/42 45/1/44 
f 176/45/173 175/42/171 39/31/32 43/4/42 
f 177/56/174 178/47/175 75/47/73 68/46/66 
f 178/47/175 179/57/176 74/48/72 75/47/73 
f 179/57/176 178/47/175 46/2/45 47/5/46 
f 178/47/175 177/56/174 45/1/44 46/2/45 
f 179/57/176 180/49/177 81/49/79 74/48/72 
f 180/49/177 181/43/178 80/43/78 81/49/79 
f 181/43/178 180/49/177 48/6/47 41/33/40 
f 180/49/177 179/57/176 47/5/46 48/6/47 
f 181/43/178 182/44/179 87/44/85 80/43/78 
f 182/44/179 183/38/180 86/38/84 87/44/85 
f 183/38/180 182/44/179 42/15/41 34/30/34 
f 182/44/179 181/43/178 41/33/40 42/15/41 
f 183/38/180 184/39/181 93/39/91 86/38/84 
f 184/39/181 185/67/182 92/40/90 93/39/91 
f 185/67/182 184/39/181 35/24/35 36/25/36 
f 184/39/181 183/38/180 34/30/34 35/24/35 
f 185/67/182 186/36/183 140/36/138 92/40/90 
f 186/36/183 172/70/170 57/34/56 140/36/138 
f 172/70/170 186/36/183 31/26/31 28/27/28 
f 186/36/183 185/67/182 36/25/36 31/26/31 
# 184 polygons

